<svg width="18" height="18" viewBox="0 0 18 18" fill="none" xmlns="http://www.w3.org/2000/svg">
<path d="M4.93464 8.94006C4.89624 9.60726 5.40984 10.1785 6.07704 10.2169C6.10104 10.2169 6.12504 10.2169 6.14904 10.2169C6.82104 10.2169 7.36344 9.67446 7.35864 9.00246C7.35864 8.33046 6.81624 7.78806 6.14424 7.79286C5.50104 7.79286 4.96824 8.29686 4.93464 8.94006Z" fill="#0033AD"/>
<path d="M0.413203 8.62806C0.197203 8.61366 0.0100026 8.78166 0.00040261 8.99766C-0.00919739 9.21366 0.154003 9.40086 0.370003 9.41046C0.586003 9.42486 0.768403 9.25686 0.782803 9.04086C0.797203 8.82486 0.629203 8.64246 0.413203 8.62806Z" fill="#0033AD"/>
<path d="M4.8579 1.90326C5.0499 1.80726 5.1267 1.56726 5.0307 1.37526C4.9347 1.18326 4.6947 1.10646 4.5027 1.20246C4.3107 1.29846 4.2339 1.53366 4.3299 1.72566C4.4259 1.92246 4.6611 2.00406 4.8579 1.90326Z" fill="#0033AD"/>
<path d="M6.08698 4.04886C6.38458 3.90006 6.50458 3.53526 6.35578 3.23766C6.20698 2.94006 5.84218 2.82006 5.54458 2.96886C5.24698 3.11766 5.12698 3.48246 5.27578 3.78006C5.42458 4.07766 5.78938 4.19766 6.08698 4.04886Z" fill="#0033AD"/>
<path d="M1.9494 5.52246C2.1798 5.67126 2.487 5.60886 2.6406 5.37846C2.7894 5.14806 2.727 4.84086 2.4966 4.68726C2.2662 4.53846 1.959 4.60086 1.8054 4.83126C1.6518 5.06166 1.719 5.37366 1.9494 5.52246Z" fill="#0033AD"/>
<path d="M2.68385 8.41206C2.34785 8.39286 2.06465 8.64726 2.04545 8.98326C2.02625 9.31926 2.28065 9.60246 2.61665 9.62166C2.95265 9.64086 3.23585 9.38646 3.25505 9.05046C3.27425 8.71926 3.01985 8.43126 2.68385 8.41206Z" fill="#0033AD"/>
<path d="M2.01664 12.4777C1.77184 12.6025 1.67104 12.9001 1.79584 13.1497C1.92064 13.3945 2.21824 13.4953 2.46784 13.3705C2.71264 13.2457 2.81344 12.9481 2.68864 12.6985C2.56384 12.4537 2.26144 12.3529 2.01664 12.4777Z" fill="#0033AD"/>
<path d="M4.36833 7.15926C4.69953 7.37526 5.14113 7.28406 5.35233 6.95286C5.56833 6.62166 5.47713 6.18006 5.14593 5.96886C4.81473 5.75286 4.37313 5.84406 4.16193 6.17526C3.94593 6.50166 4.03713 6.94326 4.36833 7.15926Z" fill="#0033AD"/>
<path d="M11.8322 4.00086C12.1106 4.18326 12.4898 4.10646 12.6722 3.82806C12.8546 3.54966 12.7778 3.17046 12.4994 2.98806C12.221 2.80566 11.8418 2.88246 11.6594 3.16086C11.4722 3.44406 11.549 3.81846 11.8322 4.00086Z" fill="#0033AD"/>
<path d="M13.0708 1.86486C13.2532 1.98486 13.4932 1.93206 13.6132 1.74966C13.7332 1.56726 13.6804 1.32726 13.498 1.20726C13.3156 1.08726 13.0756 1.14006 12.9556 1.31766C12.8404 1.50006 12.8932 1.74486 13.0708 1.86486Z" fill="#0033AD"/>
<path d="M11.9238 7.78326C11.2566 7.74486 10.6806 8.25846 10.647 8.92566C10.6086 9.59286 11.1222 10.1689 11.7894 10.2025C11.8134 10.2025 11.8374 10.2025 11.8566 10.2025C12.5238 10.2025 13.0662 9.66006 13.0662 8.98806C13.071 8.34966 12.567 7.81686 11.9238 7.78326Z" fill="#0033AD"/>
<path d="M6.4852 7.07285C6.6916 7.48085 7.1092 7.74005 7.57 7.74005C8.2372 7.74005 8.7796 7.19765 8.7796 6.52565C8.7796 6.33845 8.7364 6.15125 8.65 5.97845C8.3476 5.37845 7.618 5.13845 7.0228 5.44085C6.4228 5.74805 6.1828 6.47765 6.4852 7.07285Z" fill="#0033AD"/>
<path d="M15.9842 5.52246C16.229 5.39766 16.325 5.09526 16.2002 4.85046C16.0754 4.60566 15.773 4.50966 15.5282 4.63446C15.2834 4.75926 15.1874 5.05686 15.3074 5.30166C15.437 5.54646 15.7346 5.64726 15.9842 5.52246Z" fill="#0033AD"/>
<path d="M12.9125 5.90646C12.5621 6.08406 12.4181 6.51126 12.5957 6.86166C12.7733 7.21206 13.2005 7.35606 13.5509 7.17846C13.9013 7.00086 14.0453 6.57366 13.8677 6.22326C13.6901 5.87286 13.2629 5.73366 12.9125 5.90646Z" fill="#0033AD"/>
<path d="M8.95254 1.68246C9.22614 1.69686 9.46134 1.48566 9.48054 1.21206C9.49974 0.938456 9.28374 0.703256 9.01014 0.684056C8.73654 0.669656 8.50134 0.876056 8.48214 1.14966C8.46774 1.42806 8.67894 1.66326 8.95254 1.68246Z" fill="#0033AD"/>
<path d="M8.94778 4.81686C9.34138 4.84086 9.67738 4.53846 9.69658 4.14486C9.72058 3.75126 9.41818 3.41526 9.02458 3.39606C8.63098 3.37206 8.29498 3.67446 8.27578 4.06806C8.25658 4.46166 8.55418 4.79766 8.94778 4.81686Z" fill="#0033AD"/>
<path d="M5.08851 12.0937C5.43891 11.9161 5.58291 11.4889 5.40531 11.1385C5.22771 10.7881 4.80051 10.6441 4.45011 10.8217C4.09971 10.9993 3.95571 11.4265 4.13331 11.7769C4.31091 12.1273 4.73811 12.2713 5.08851 12.0937Z" fill="#0033AD"/>
<path d="M9.40857 5.85846C9.04377 6.42006 9.19737 7.16886 9.75897 7.53366C10.3206 7.89846 11.0694 7.74486 11.4342 7.18326C11.799 6.62166 11.6454 5.87286 11.0838 5.50806C10.887 5.37846 10.6566 5.31126 10.4214 5.31126C10.0134 5.31126 9.63417 5.51766 9.40857 5.85846Z" fill="#0033AD"/>
<path d="M11.5157 10.9273C11.2133 10.3273 10.4837 10.0873 9.88852 10.3897C9.28852 10.6921 9.04852 11.4217 9.35092 12.0169C9.65332 12.6169 10.3829 12.8569 10.9781 12.5545C11.5733 12.2569 11.8181 11.5369 11.5205 10.9369C11.5205 10.9321 11.5205 10.9321 11.5157 10.9273Z" fill="#0033AD"/>
<path d="M13.6323 10.8409C13.3011 10.6249 12.8595 10.7161 12.6483 11.0473C12.4323 11.3785 12.5235 11.8201 12.8547 12.0313C13.1859 12.2473 13.6275 12.1561 13.8387 11.8249C14.0547 11.4985 13.9635 11.0569 13.6323 10.8409Z" fill="#0033AD"/>
<path d="M15.9557 9.02166C15.9749 8.68566 15.7205 8.40246 15.3845 8.38326C15.0485 8.36406 14.7653 8.61846 14.7461 8.95446C14.7269 9.29046 14.9813 9.57366 15.3173 9.59286C15.6485 9.61206 15.9365 9.35286 15.9557 9.02166Z" fill="#0033AD"/>
<path d="M17.631 8.58966C17.415 8.57526 17.2278 8.74326 17.2182 8.95926C17.2086 9.17526 17.3718 9.36246 17.5878 9.37206C17.8038 9.38646 17.9862 9.21846 18.0006 9.00246C18.0102 8.78646 17.847 8.60406 17.631 8.58966Z" fill="#0033AD"/>
<path d="M16.0516 12.4777C15.8212 12.3289 15.514 12.3913 15.3604 12.6217C15.2116 12.8521 15.274 13.1593 15.5044 13.3129C15.7348 13.4617 16.042 13.3993 16.1956 13.1689C16.3492 12.9385 16.282 12.6265 16.0516 12.4777Z" fill="#0033AD"/>
<path d="M4.92543 16.1353C4.74303 16.0153 4.50303 16.0681 4.38303 16.2457C4.26303 16.4281 4.31583 16.6681 4.49343 16.7881C4.67583 16.9081 4.91583 16.8553 5.03583 16.6777C5.16063 16.5001 5.10783 16.2553 4.92543 16.1353Z" fill="#0033AD"/>
<path d="M13.1428 16.0969C12.9508 16.1929 12.874 16.4329 12.97 16.6249C13.066 16.8169 13.306 16.8937 13.498 16.7977C13.69 16.7017 13.7668 16.4665 13.6708 16.2745C13.5748 16.0777 13.3396 15.9961 13.1428 16.0969Z" fill="#0033AD"/>
<path d="M8.59246 12.1417C8.95726 11.5801 8.80366 10.8313 8.24206 10.4617C7.68046 10.0969 6.93166 10.2505 6.56206 10.8121C6.19246 11.3737 6.35086 12.1225 6.91246 12.4921C7.10926 12.6217 7.33966 12.6889 7.57486 12.6889C7.98766 12.6937 8.36686 12.4873 8.59246 12.1417Z" fill="#0033AD"/>
<path d="M6.16843 13.9993C5.89003 13.8169 5.51083 13.8937 5.32843 14.1721C5.14603 14.4505 5.22283 14.8297 5.50123 15.0121C5.77963 15.1945 6.15883 15.1177 6.34123 14.8393C6.52843 14.5609 6.45163 14.1817 6.16843 13.9993Z" fill="#0033AD"/>
<path d="M8.9955 16.3177C8.7219 16.3033 8.4867 16.5145 8.4675 16.7881C8.4483 17.0617 8.6643 17.2969 8.9379 17.3161C9.2115 17.3305 9.4467 17.1241 9.4659 16.8505C9.4803 16.5721 9.2691 16.3369 8.9955 16.3177Z" fill="#0033AD"/>
<path d="M9.00062 13.1833C8.60702 13.1593 8.27102 13.4617 8.25182 13.8553C8.22782 14.2489 8.53022 14.5849 8.92382 14.6041C9.31742 14.6233 9.65342 14.3257 9.67262 13.9321C9.69662 13.5433 9.39422 13.2025 9.00062 13.1833Z" fill="#0033AD"/>
<path d="M11.914 13.9513C11.6164 14.1049 11.4964 14.4697 11.65 14.7673C11.8036 15.0649 12.1684 15.1849 12.466 15.0313C12.7636 14.8825 12.8836 14.5177 12.7348 14.2201C12.5812 13.9225 12.2164 13.7977 11.914 13.9513Z" fill="#0033AD"/>
</svg>
