<svg width="19" height="18" viewBox="0 0 19 18" fill="none" xmlns="http://www.w3.org/2000/svg">
<g clip-path="url(#clip0_9_720)">
<path d="M9.60547 18C14.576 18 18.6055 13.9706 18.6055 9C18.6055 4.02944 14.576 0 9.60547 0C4.63491 0 0.605469 4.02944 0.605469 9C0.605469 13.9706 4.63491 18 9.60547 18Z" fill="#2E3148"/>
<path d="M9.60553 14.2222C12.4897 14.2222 14.8278 11.8842 14.8278 9C14.8278 6.11584 12.4897 3.77777 9.60553 3.77777C6.72137 3.77777 4.3833 6.11584 4.3833 9C4.3833 11.8842 6.72137 14.2222 9.60553 14.2222Z" fill="#1B1E36"/>
<path d="M9.62399 1.14819C8.6525 1.14819 7.86475 4.67187 7.86475 9.01858C7.86475 13.3653 8.6525 16.889 9.62399 16.889C10.5955 16.889 11.3832 13.3653 11.3832 9.01858C11.3832 4.67187 10.5955 1.14819 9.62399 1.14819ZM9.74546 16.4448C9.63436 16.593 9.52327 16.4818 9.52327 16.4818C9.07586 15.9634 8.85215 15.0003 8.85215 15.0003C8.06959 12.4818 8.25585 7.07443 8.25585 7.07443C8.62363 2.78151 9.29265 1.76739 9.52031 1.54224C9.54356 1.51926 9.57417 1.50522 9.60676 1.50259C9.63934 1.49995 9.6718 1.5089 9.69844 1.52784C10.0288 1.76191 10.3058 2.74083 10.3058 2.74083C11.124 5.77786 11.0499 8.62971 11.0499 8.62971C11.124 11.1112 10.6399 13.8889 10.6399 13.8889C10.2673 16 9.74546 16.4448 9.74546 16.4448Z" fill="#6F7390"/>
<path d="M16.4506 5.10185C15.9669 4.25887 12.5187 5.32922 8.74657 7.49225C4.97441 9.65527 2.31358 12.0923 2.79692 12.9349C3.28026 13.7775 6.72877 12.7075 10.5009 10.5445C14.2731 8.38145 16.9339 5.94447 16.4506 5.10185ZM3.24318 12.8192C3.05799 12.7959 3.09982 12.6437 3.09982 12.6437C3.32698 11.9978 4.04986 11.3244 4.04986 11.3244C5.84576 9.39226 10.6292 6.86297 10.6292 6.86297C14.5354 5.04555 15.7488 5.12223 16.0566 5.20697C16.0882 5.21579 16.1156 5.2355 16.1341 5.26262C16.1525 5.28974 16.1608 5.32252 16.1574 5.35515C16.1204 5.75835 15.4074 6.48555 15.4074 6.48555C13.1817 8.70739 10.671 10.0626 10.671 10.0626C8.55541 11.3622 5.90509 12.324 5.90509 12.324C3.88844 13.0507 3.24325 12.8192 3.24325 12.8192H3.24318Z" fill="#6F7390"/>
<path d="M16.4337 12.963C16.9211 12.1222 14.267 9.67406 10.5081 7.49477C6.74919 5.31547 3.30147 4.23187 2.81446 5.07406C2.32745 5.91624 4.98115 8.36294 8.74222 10.5422C12.5033 12.7215 15.9467 13.8052 16.4337 12.963ZM3.13745 5.39892C3.06545 5.22821 3.21744 5.1871 3.21744 5.1871C3.89035 5.06002 4.83557 5.3496 4.83557 5.3496C7.40705 5.93518 11.9924 8.8074 11.9924 8.8074C15.5227 11.2778 16.0642 12.3659 16.1453 12.6748C16.1536 12.7065 16.1504 12.7401 16.1363 12.7696C16.1222 12.7992 16.0981 12.8228 16.0683 12.8363C15.7002 13.0049 14.7142 12.7537 14.7142 12.7537C11.6753 11.9389 9.24492 10.446 9.24492 10.446C7.06123 9.2682 4.90195 7.45596 4.90195 7.45596C3.26122 6.0745 3.13795 5.40079 3.13795 5.40079L3.13745 5.39892Z" fill="#6F7390"/>
<path d="M9.60561 9.92592C10.117 9.92592 10.5315 9.51137 10.5315 9C10.5315 8.48863 10.117 8.07408 9.60561 8.07408C9.09424 8.07408 8.67969 8.48863 8.67969 9C8.67969 9.51137 9.09424 9.92592 9.60561 9.92592Z" fill="#B7B9C8"/>
<path d="M13.4018 5.99997C13.6984 5.99997 13.9388 5.75124 13.9388 5.44442C13.9388 5.1376 13.6984 4.88887 13.4018 4.88887C13.1052 4.88887 12.8647 5.1376 12.8647 5.44442C12.8647 5.75124 13.1052 5.99997 13.4018 5.99997Z" fill="#B7B9C8"/>
<path d="M4.58685 7.8889C4.88346 7.8889 5.1239 7.64017 5.1239 7.33335C5.1239 7.02652 4.88346 6.77779 4.58685 6.77779C4.29025 6.77779 4.0498 7.02652 4.0498 7.33335C4.0498 7.64017 4.29025 7.8889 4.58685 7.8889Z" fill="#B7B9C8"/>
<path d="M8.51263 14.7037C8.80924 14.7037 9.04968 14.455 9.04968 14.1481C9.04968 13.8413 8.80924 13.5926 8.51263 13.5926C8.21603 13.5926 7.97559 13.8413 7.97559 14.1481C7.97559 14.455 8.21603 14.7037 8.51263 14.7037Z" fill="#B7B9C8"/>
</g>
<defs>
<clipPath id="clip0_9_720">
<rect width="18" height="18" fill="white" transform="translate(0.605469)"/>
</clipPath>
</defs>
</svg>
