<svg width="19" height="18" viewBox="0 0 19 18" fill="none" xmlns="http://www.w3.org/2000/svg">
<g clip-path="url(#clip0_9_711)">
<path d="M15.1987 3.0758H4.09229V13.1769H15.1987V3.0758Z" fill="white"/>
<path fill-rule="evenodd" clip-rule="evenodd" d="M18.6391 8.98803C18.6391 13.952 14.6151 17.9761 9.65112 17.9761C4.68716 17.9761 0.663086 13.952 0.663086 8.98803C0.663086 4.02408 4.68716 0 9.65112 0C14.6151 0 18.6391 4.02408 18.6391 8.98803ZM7.10417 12.5648H5.35984C4.99331 12.5648 4.81225 12.5648 4.70186 12.4942C4.58262 12.4169 4.50976 12.2888 4.50093 12.1475C4.4943 12.0173 4.58484 11.8582 4.76589 11.5403L9.07284 3.94869C9.25611 3.62632 9.34884 3.46513 9.46586 3.40552C9.59172 3.34149 9.74187 3.34149 9.86773 3.40552C9.98475 3.46513 10.0775 3.62632 10.2607 3.94869L11.1462 5.4943L11.1507 5.50218C11.3486 5.84803 11.449 6.02341 11.4928 6.20747C11.5414 6.40841 11.5414 6.62037 11.4928 6.82131C11.4487 7.00677 11.3493 7.18342 11.1484 7.5345L8.88603 11.5337L8.88018 11.5439C8.68094 11.8926 8.57996 12.0693 8.44002 12.2027C8.28767 12.3484 8.1044 12.4543 7.90347 12.5141C7.7202 12.5648 7.51486 12.5648 7.10417 12.5648ZM11.5092 12.5648H14.0086C14.3773 12.5648 14.5628 12.5648 14.6733 12.492C14.7925 12.4147 14.8675 12.2844 14.8742 12.1432C14.8806 12.0172 14.792 11.8643 14.6185 11.5648C14.6125 11.5546 14.6065 11.5443 14.6004 11.5337L13.3484 9.39195L13.3342 9.36784C13.1582 9.07034 13.0694 8.9201 12.9554 8.86203C12.8296 8.79799 12.6816 8.79799 12.5558 8.86203C12.4409 8.92164 12.3482 9.07841 12.1649 9.39416L10.9174 11.5359L10.9131 11.5433C10.7305 11.8585 10.6393 12.0161 10.6458 12.1453C10.6547 12.2867 10.7275 12.4169 10.8468 12.4942C10.955 12.5648 11.1404 12.5648 11.5092 12.5648Z" fill="#E84142"/>
</g>
<defs>
<clipPath id="clip0_9_711">
<rect width="18" height="18" fill="white" transform="translate(0.663086)"/>
</clipPath>
</defs>
</svg>
