<svg width="19" height="18" viewBox="0 0 19 18" fill="none" xmlns="http://www.w3.org/2000/svg">
<g clip-path="url(#clip0_9_708)">
<path d="M9.59717 18C14.5677 18 18.5972 13.9706 18.5972 9C18.5972 4.02944 14.5677 0 9.59717 0C4.62661 0 0.597168 4.02944 0.597168 9C0.597168 13.9706 4.62661 18 9.59717 18Z" fill="#0AC18E"/>
<path d="M12.4043 5.97792C11.952 4.95228 10.9127 4.73299 9.64033 4.94543L9.23145 3.36015L8.26749 3.60914L8.66952 5.18985C8.41597 5.25381 8.15556 5.30863 7.89744 5.38173L7.49541 3.81015L6.53145 4.05914L6.94033 5.64442C6.73247 5.70381 4.99414 6.14924 4.99414 6.14924L5.25912 7.18173C5.25912 7.18173 5.96724 6.98299 5.96038 6.99898C6.35328 6.89619 6.5383 7.09264 6.6251 7.27766L7.74896 11.6223C7.76267 11.748 7.73983 11.9627 7.47028 12.0358C7.48627 12.0449 6.76901 12.2162 6.76901 12.2162L6.87409 13.4201C6.87409 13.4201 8.59642 12.9792 8.82257 12.9221L9.23602 14.5256L10.2 14.2766L9.78653 12.6617C10.0515 12.6 10.3096 12.536 10.5609 12.4698L10.9721 14.0756L11.936 13.8266L11.5226 12.2254C13.0073 11.8645 14.0558 10.9279 13.8411 9.49569C13.704 8.63223 12.7606 7.92411 11.9771 7.84416C12.4591 7.417 12.7035 6.7934 12.4043 5.97792ZM11.9406 9.75838C12.1325 11.1769 10.1611 11.3505 9.51013 11.5218L8.94363 9.39975C9.59693 9.22843 11.6162 8.50888 11.9406 9.75838ZM10.7528 6.86878C10.9561 8.1297 9.27028 8.27589 8.72663 8.41523L8.21038 6.48959C8.75632 6.35482 10.3393 5.70152 10.7528 6.86878Z" fill="white"/>
</g>
<defs>
<clipPath id="clip0_9_708">
<rect width="18" height="18" fill="white" transform="translate(0.597168)"/>
</clipPath>
</defs>
</svg>
