<svg width="24" height="24" viewBox="0 0 24 24" fill="none" xmlns="http://www.w3.org/2000/svg">
<g clip-path="url(#clip0_44_4811)">
<path d="M23.6409 14.9029C22.0381 21.3315 15.5262 25.2438 9.09605 23.6407C2.66863 22.038 -1.24415 15.5265 0.359423 9.09837C1.96159 2.66903 8.47348 -1.24361 14.9016 0.359081C21.3313 1.96177 25.2438 8.47404 23.6408 14.903L23.6409 14.9029H23.6409Z" fill="#F7931A"/>
<path d="M17.2918 10.2903C17.5307 8.6934 16.3148 7.83498 14.6521 7.26233L15.1915 5.09914L13.8745 4.77103L13.3494 6.87726C13.0032 6.79092 12.6477 6.70957 12.2943 6.62892L12.8232 4.50878L11.5071 4.18066L10.9674 6.34315C10.6809 6.27793 10.3995 6.21347 10.1265 6.14554L10.128 6.13874L8.31188 5.68528L7.96155 7.09171C7.96155 7.09171 8.93862 7.31565 8.91803 7.32943C9.45132 7.46252 9.54776 7.81551 9.53174 8.09529L8.91732 10.5597C8.95405 10.569 9.00168 10.5825 9.05424 10.6036C9.0103 10.5927 8.96355 10.5808 8.91504 10.5692L8.05383 14.0214C7.98865 14.1834 7.82323 14.4266 7.45038 14.3342C7.46357 14.3534 6.4932 14.0954 6.4932 14.0954L5.83936 15.6027L7.55315 16.0299C7.87198 16.1098 8.18441 16.1935 8.49209 16.2721L7.94712 18.4601L9.26255 18.7883L9.80223 16.6235C10.1616 16.721 10.5103 16.811 10.8517 16.8958L10.3139 19.0504L11.6309 19.3785L12.1758 17.1946C14.4215 17.6196 16.11 17.4482 16.8208 15.4172C17.3935 13.7821 16.7923 12.8389 15.6108 12.2238C16.4713 12.0254 17.1195 11.4595 17.2923 10.2905L17.2919 10.2902L17.2918 10.2903ZM14.2829 14.5091C13.8759 16.1443 11.1225 15.2604 10.2298 15.0387L10.9529 12.14C11.8456 12.3628 14.7083 12.8038 14.283 14.5091H14.2829ZM14.6902 10.2666C14.3189 11.754 12.0272 10.9984 11.2838 10.8131L11.9394 8.1841C12.6829 8.36939 15.077 8.71522 14.6903 10.2666H14.6902Z" fill="white"/>
</g>
<defs>
<clipPath id="clip0_44_4811">
<rect width="24" height="24" fill="white"/>
</clipPath>
</defs>
</svg>
