<svg width="19" height="18" viewBox="0 0 19 18" fill="none" xmlns="http://www.w3.org/2000/svg">
<g clip-path="url(#clip0_9_700)">
<path d="M9.33008 0C14.3011 0 18.3301 4.02979 18.3301 9C18.3301 13.971 14.3011 18 9.33008 18C4.35987 18 0.330078 13.9706 0.330078 9C0.330078 4.02979 4.35987 0 9.33008 0Z" fill="#F5AC37"/>
<path d="M9.66173 9.63545H13.0816C13.1545 9.63545 13.1889 9.63545 13.1942 9.53987C13.2221 9.19197 13.2221 8.84205 13.1942 8.49375C13.1942 8.42611 13.1606 8.39817 13.0872 8.39817H6.28116C6.19692 8.39817 6.17424 8.42611 6.17424 8.50509V9.50626C6.17424 9.63545 6.17424 9.63545 6.3091 9.63545H9.66173ZM12.8123 7.22811C12.822 7.20259 12.822 7.17465 12.8123 7.14954C12.7551 7.0252 12.6875 6.90654 12.6089 6.79516C12.4907 6.60481 12.3514 6.42944 12.1926 6.27189C12.1177 6.17672 12.031 6.09126 11.9338 6.01877C11.447 5.60445 10.8682 5.31122 10.2461 5.1638C9.93227 5.09333 9.61151 5.05972 9.28993 5.06255H6.26941C6.18517 5.06255 6.17383 5.09617 6.17383 5.16947V7.16614C6.17383 7.25038 6.17383 7.27306 6.28075 7.27306H12.7718C12.7718 7.27306 12.828 7.26172 12.8394 7.22811H12.8118H12.8123ZM12.8123 10.8055C12.7167 10.795 12.6203 10.795 12.5247 10.8055H6.28683C6.20259 10.8055 6.17424 10.8055 6.17424 10.9181V12.8702C6.17424 12.9601 6.17424 12.9828 6.28683 12.9828H9.16681C9.30451 12.9933 9.44221 12.9836 9.57708 12.9549C9.99504 12.9249 10.4061 12.8342 10.7982 12.6847C10.9407 12.6353 11.0784 12.5709 11.2084 12.4936H11.2477C11.9229 12.1424 12.4712 11.5908 12.8171 10.9136C12.8171 10.9136 12.8564 10.8286 12.8123 10.8063V10.8055ZM5.04387 13.9949V13.9613V12.6507V12.2064V10.8845C5.04387 10.8112 5.04387 10.8002 4.95396 10.8002H3.73328C3.66564 10.8002 3.6377 10.8002 3.6377 10.7103V9.64153H4.94262C5.01552 9.64153 5.04387 9.64153 5.04387 9.54595V8.48848C5.04387 8.42085 5.04387 8.40424 4.95396 8.40424H3.73328C3.66564 8.40424 3.6377 8.40424 3.6377 8.31433V7.3245C3.6377 7.26253 3.6377 7.24593 3.72761 7.24593H4.93695C5.02119 7.24593 5.04387 7.24593 5.04387 7.13901V4.10715C5.04387 4.01724 5.04387 3.99456 5.15646 3.99456H9.37498C9.68117 4.00671 9.98532 4.04032 10.2862 4.09581C10.9063 4.21042 11.5021 4.43196 12.0468 4.74827C12.4081 4.9609 12.7406 5.21767 13.0366 5.51332C13.2594 5.74458 13.4603 5.99487 13.6385 6.26136C13.8154 6.5315 13.9625 6.82027 14.0779 7.122C14.0921 7.20057 14.1674 7.25362 14.246 7.24026H15.2528C15.382 7.24026 15.382 7.24026 15.3877 7.36419V8.28679C15.3877 8.3767 15.3541 8.39938 15.2637 8.39938H14.4873C14.4088 8.39938 14.3861 8.39938 14.3918 8.50063C14.4225 8.84326 14.4225 9.18711 14.3918 9.52975C14.3918 9.62533 14.3918 9.63667 14.4991 9.63667H15.3873C15.4266 9.68729 15.3873 9.73792 15.3873 9.78895C15.3929 9.85416 15.3929 9.92017 15.3873 9.98538V10.6662C15.3873 10.7618 15.3593 10.7901 15.2747 10.7901H14.2115C14.1374 10.7759 14.0653 10.8233 14.0483 10.897C13.7952 11.5552 13.3902 12.1453 12.8669 12.6183C12.6758 12.7904 12.4749 12.9524 12.2651 13.1019C12.0399 13.2315 11.8208 13.3664 11.5899 13.4733C11.1651 13.6644 10.7196 13.8054 10.2623 13.8949C9.82818 13.9726 9.38794 14.0079 8.94608 14.0018H5.04225V13.9961L5.04387 13.9949Z" fill="#FEFEFD"/>
</g>
<defs>
<clipPath id="clip0_9_700">
<rect width="18" height="18" fill="white" transform="translate(0.330078)"/>
</clipPath>
</defs>
</svg>
