<svg width="19" height="18" viewBox="0 0 19 18" fill="none" xmlns="http://www.w3.org/2000/svg">
<g clip-path="url(#clip0_9_721)">
<path d="M9.82156 5.931H8.53564V8.46621H10.5588V9.52767H8.53564V12.0627H9.88456C10.2312 12.0627 12.73 12.1019 12.7261 9.11322C12.7223 6.12459 10.3025 5.931 9.82156 5.931Z" fill="#C2A633"/>
<path d="M9.60547 0C4.63486 0 0.605469 4.02939 0.605469 9C0.605469 13.9706 4.63486 18 9.60547 18C14.5761 18 18.6055 13.9706 18.6055 9C18.6055 4.02939 14.5761 0 9.60547 0ZM9.95908 13.8609H6.69973V9.52776H5.55079V8.4663H6.69964V4.13289H9.49702C10.1588 4.13289 14.5421 3.99546 14.5421 9.07821C14.5421 14.245 9.95917 13.8609 9.95917 13.8609H9.95908Z" fill="#C2A633"/>
</g>
<defs>
<clipPath id="clip0_9_721">
<rect width="18" height="18" fill="white" transform="translate(0.605469)"/>
</clipPath>
</defs>
</svg>
