<svg width="19" height="18" viewBox="0 0 19 18" fill="none" xmlns="http://www.w3.org/2000/svg">
<g clip-path="url(#clip0_9_698)">
<path d="M9.40487 3.77537C11.1974 3.77537 12.6506 2.93022 12.6506 1.88768C12.6506 0.845145 11.1974 0 9.40487 0C7.61233 0 6.15918 0.845145 6.15918 1.88768C6.15918 2.93022 7.61233 3.77537 9.40487 3.77537Z" fill="#E6007A"/>
<path d="M9.40487 17.9987C11.1974 17.9987 12.6506 17.1536 12.6506 16.111C12.6506 15.0685 11.1974 14.2234 9.40487 14.2234C7.61233 14.2234 6.15918 15.0685 6.15918 16.111C6.15918 17.1536 7.61233 17.9987 9.40487 17.9987Z" fill="#E6007A"/>
<path d="M4.88183 6.38837C5.7781 4.83602 5.77228 3.15474 4.86884 2.63312C3.96539 2.1115 2.50642 2.94706 1.61015 4.49941C0.713878 6.05175 0.719695 7.73303 1.62314 8.25466C2.52659 8.77628 3.98556 7.94071 4.88183 6.38837Z" fill="#E6007A"/>
<path d="M17.1985 13.4992C18.0947 11.9469 18.0894 10.2659 17.1866 9.74459C16.2837 9.22332 14.8253 10.0592 13.929 11.6115C13.0327 13.1639 13.038 14.8449 13.9409 15.3661C14.8437 15.8874 16.3022 15.0515 17.1985 13.4992Z" fill="#E6007A"/>
<path d="M4.86932 15.3657C5.77277 14.8441 5.77859 13.1628 4.88232 11.6104C3.98604 10.0581 2.52708 9.22253 1.62363 9.74415C0.720183 10.2658 0.714366 11.9471 1.61064 13.4994C2.50691 15.0517 3.96588 15.8873 4.86932 15.3657Z" fill="#E6007A"/>
<path d="M17.1871 8.25507C18.0899 7.7338 18.0952 6.0528 17.199 4.50046C16.3027 2.94811 14.8442 2.11226 13.9414 2.63353C13.0385 3.1548 13.0332 4.8358 13.9295 6.38814C14.8258 7.94049 16.2842 8.77634 17.1871 8.25507Z" fill="#E6007A"/>
</g>
<defs>
<clipPath id="clip0_9_698">
<rect width="18" height="17.9987" fill="white" transform="translate(0.404785)"/>
</clipPath>
</defs>
</svg>
