<svg width="19" height="18" viewBox="0 0 19 18" fill="none" xmlns="http://www.w3.org/2000/svg">
<path d="M5.3502 7.71197H5.3583L5.49601 7.76058L5.62562 7.80918L5.76334 7.84969L5.89295 7.90639L6.03066 7.955L6.16028 8.0036L6.29799 8.05221L6.4276 8.10081L6.55722 8.14942L6.68683 8.19802L6.82454 8.24663L6.95416 8.30333L7.09187 8.34383L7.22148 8.39244L7.3592 8.44104L7.48881 8.49775L7.62652 8.54636L7.75614 8.58686L7.88575 8.63546L8.02346 8.69217L8.16118 8.74077V8.53015V8.49775V8.32763V8.20612V8.11701V7.90639V7.70387V7.49325V7.29073V7.07201V6.86949V6.84518H7.99916H7.84525H7.82904H7.65893H7.52931H7.48071H7.31059H7.22148H7.13237H6.95416H6.90555H6.78404H6.61392H6.60582H6.59772H6.43571H6.28989H6.26559H6.08737H5.97396H5.66613H5.3583H5.3502H5.17198L5.04237 6.90999L4.73453 7.07201L4.4186 7.24212L4.10267 7.39604L3.80294 7.55806L3.48701 7.72817L3.17108 7.88209L2.86325 8.05221L2.54732 8.21422L2.23949 8.36814L1.93165 8.53825L1.64813 8.68407L1.61572 13.3258L1.93165 13.5446L2.23949 13.7633L2.54732 13.9739L2.86325 14.2007L3.17108 14.4194L3.48701 14.6382L3.62472 14.7435L3.80294 14.5167L4.10267 14.1116L4.13507 14.0711L4.10267 14.0468L3.80294 13.8281L3.48701 13.6094L3.17108 13.3906L2.86325 13.1719L2.54732 12.9451L2.46631 12.8965L2.49061 9.13771L2.54732 9.10531L2.86325 8.9514L3.17108 8.79748L3.48701 8.64356L3.80294 8.48965L4.10267 8.32763L4.4186 8.17372L4.73453 8.0279L5.04237 7.86589L5.3502 7.71197Z" fill="url(#paint0_linear_9_715)"/>
<path d="M10.7131 16.5662L10.4539 16.6715L10.1622 16.793L9.87061 16.9064L9.57898 17.0279L9.44936 17.0765L9.29545 17.0036L9.00382 16.8497L8.71219 16.712L8.42866 16.5581L8.13703 16.4122L7.8454 16.2745L7.55377 16.1206L7.26214 15.9748L6.97052 15.829L6.67889 15.6832L6.38726 15.5293L6.11183 15.3915L5.8202 15.2457L5.7878 15.2295V11.4383H5.52857H5.23694H4.94531V15.748L5.23694 15.8857L5.52857 16.0315L5.8202 16.1854L6.11183 16.3231L6.38726 16.477L6.67889 16.6229L6.97052 16.7687L7.26214 16.9145L7.55377 17.0603L7.8454 17.2061L8.13703 17.3519L8.42866 17.5059L8.71219 17.6436L9.00382 17.7975L9.29545 17.9352L9.40886 18L9.57898 17.919L9.87061 17.8137L10.1622 17.6922L10.4539 17.5707L10.7374 17.4572L11.029 17.3438L10.7374 16.6148L10.7131 16.5662Z" fill="url(#paint1_linear_9_715)"/>
<path d="M15.8892 11.3006L15.9054 13.0828L15.8325 13.1476L15.3384 13.4878L14.8442 13.8443L14.3501 14.2007L13.8559 14.5491L13.3618 14.8974L12.8757 15.2538L12.3816 15.6022L12.0899 15.8128L11.8874 15.6589L11.4014 15.2781L10.9072 14.9055L10.4131 14.5248L9.92702 14.1521L9.83791 14.0873V12.1674L9.92702 12.0864L10.4131 11.568L10.9072 11.0576L11.4014 10.5392L11.8874 10.0288L12.3654 9.52655H11.8874H11.4014H10.9072H10.4131H9.92702H9.42477H8.93062H8.44457H7.95042H7.45627H6.97022H6.47607L6.97022 10.045L7.45627 10.5554L7.95042 11.0657L8.44457 11.5842L8.93062 12.0945L9.00353 12.1674V14.4923L9.42477 14.8245L9.92702 15.2052L10.4131 15.5779L10.9072 15.9586L11.4014 16.3312L11.8874 16.712L12.0656 16.8497L12.3816 16.6229L12.8757 16.2826L13.3618 15.9262L13.8559 15.5698L14.3501 15.2295L14.8442 14.8731L15.3384 14.5167L15.8325 14.1764L16.3267 13.82L16.7317 13.5203L16.8127 11.333L16.3267 11.3168L15.8892 11.3006Z" fill="url(#paint2_linear_9_715)"/>
<path d="M2.41761 7.15302H2.47432L2.48242 4.77138L2.79835 4.56886L3.19529 4.33393L3.58413 4.09901L3.97297 3.85599L4.36181 3.62106L4.75875 3.37804L5.13949 3.14311L5.53643 2.90819L5.92527 2.66517L6.3222 2.42214H6.33031L6.70294 2.64086L7.09988 2.85959L7.48872 3.08641L7.87756 3.30513L8.2664 3.52385L8.65524 3.74257L9.04408 3.9694L9.42482 4.18812L9.44102 4.15572L9.82986 3.45095L9.44102 3.22412L9.04408 3.0054L8.65524 2.78668L8.2664 2.56796L7.87756 2.34113L7.48872 2.12241L7.09988 1.90369L6.70294 1.67687L6.3222 1.45815L6.306 1.45005L5.92527 1.67687L5.53643 1.91989L5.13949 2.16292L4.75875 2.40594L4.36181 2.64086L3.97297 2.87579L3.58413 3.11881L3.19529 3.35374L2.79835 3.59676L2.41761 3.83168L2.02067 4.06661L1.64804 4.30153L1.63184 7.14491H2.02067L2.41761 7.15302Z" fill="url(#paint3_linear_9_715)"/>
<path d="M17.6474 4.9739L17.4449 4.81188L17.2424 4.64987L17.0399 4.47975L16.8374 4.31773L16.6348 4.15572L16.4242 3.9937L16.2217 3.83168L16.0192 3.66967L15.8085 3.49955L15.6546 3.38614L15.5979 3.45095L15.3954 3.70207L15.1929 3.9613L15.1362 4.0261L15.1929 4.08281L15.3954 4.25293L15.5979 4.42304L15.8085 4.59316L16.0192 4.76328L16.2217 4.94149L16.4242 5.11161L16.6348 5.28173L16.732 5.36274L16.7401 9.19442L16.6348 9.26733L16.4242 9.39694L16.2217 9.52655L16.0192 9.65617L15.8085 9.78578L15.5979 9.91539L15.3954 10.045L15.1929 10.1746L14.9904 10.3042L14.7878 10.4338L14.5853 10.5635L14.3747 10.6931L14.1722 10.8227L13.9697 10.9523L13.7671 11.0819L13.5565 11.2115L13.354 11.3411L13.5565 11.6652L13.7671 11.9892L13.7995 12.0459L13.9697 11.9406L14.1722 11.8191L14.3747 11.6895L14.5853 11.568L14.7878 11.4302L14.9904 11.3087L15.1929 11.1791L15.3954 11.0576L15.5979 10.928L15.8085 10.8065L16.0192 10.6688L16.2217 10.5473L16.4242 10.4176L16.6348 10.2961L16.8374 10.1665L17.0399 10.045L17.2424 9.90729L17.4449 9.78578L17.6474 9.65617V4.9739Z" fill="url(#paint4_linear_9_715)"/>
<path d="M10.9642 7.25833V7.46895V7.67957V7.89019V8.10891V8.32763V8.53825V8.74888V8.91089L11.029 8.88659L11.3044 8.78128L11.5799 8.66787L11.8472 8.56256L12.1226 8.44915L12.398 8.33573L12.6654 8.23042L12.9408 8.11701L13.2162 8.0117L13.4835 7.89829L13.759 7.79298L14.0263 7.67957V7.46895V7.38794V6.82898V2.66517L13.7185 2.47075L13.4025 2.29253L13.0866 2.11431L12.7788 1.91989L12.4628 1.74167L12.1469 1.56346L11.8391 1.37714L11.5231 1.19082L11.2153 1.0045L10.8994 0.826283L10.5835 0.639964L10.2756 0.453645L9.96779 0.275428L9.65186 0.0972097L9.48175 0L9.33593 0.0810081L9.02 0.251125L8.70407 0.413141L8.40434 0.591359L8.08841 0.761476L7.77247 0.923492L7.45654 1.10171L7.77247 1.27993L8.08841 1.45815L8.28283 1.57966L8.40434 1.51485L8.70407 1.35284L9.02 1.18272L9.33593 1.0207L9.45744 0.955896L9.65186 1.06931L9.96779 1.24752L10.2756 1.42574L10.5835 1.61206L10.8994 1.79838L11.2153 1.9766L11.5231 2.16292L11.8391 2.34924L12.1469 2.52745L12.4628 2.70567L12.7788 2.90009L13.0866 3.07831L13.1919 3.13501V6.82898H13.119H13.0866H12.9408H12.7788H12.7626H12.5763H12.4628H12.398H12.2198H12.1469H12.0416H11.8634H11.8391H11.6852H11.5231H11.5069H11.3206H11.2153H11.1424H11.0047H10.9804" fill="url(#paint5_linear_9_715)"/>
<path d="M10.9639 8.91089L14.026 7.67957L10.9639 6.82898" fill="url(#paint6_linear_9_715)"/>
<path d="M8.16128 8.91089V6.86139L5.3584 7.69577L8.16128 8.90279" fill="url(#paint7_linear_9_715)"/>
<defs>
<linearGradient id="paint0_linear_9_715" x1="4.88643" y1="6.84762" x2="4.88643" y2="14.7402" gradientUnits="userSpaceOnUse">
<stop stop-color="#F6E93D"/>
<stop offset="0.13" stop-color="#F8E330"/>
<stop offset="0.35" stop-color="#F7C730"/>
<stop offset="0.64" stop-color="#F59C2E"/>
<stop offset="0.98" stop-color="#EB5E2C"/>
<stop offset="1" stop-color="#EB5C2C"/>
</linearGradient>
<linearGradient id="paint1_linear_9_715" x1="7.98838" y1="11.4416" x2="7.98838" y2="17.9992" gradientUnits="userSpaceOnUse">
<stop stop-color="#F6E93D"/>
<stop offset="0.13" stop-color="#F8E330"/>
<stop offset="0.35" stop-color="#F7C730"/>
<stop offset="0.64" stop-color="#F59C2E"/>
<stop offset="0.98" stop-color="#EB5E2C"/>
<stop offset="1" stop-color="#EB5C2C"/>
</linearGradient>
<linearGradient id="paint2_linear_9_715" x1="11.644" y1="9.52574" x2="11.644" y2="16.8521" gradientUnits="userSpaceOnUse">
<stop stop-color="#F6E93D"/>
<stop offset="0.13" stop-color="#F8E330"/>
<stop offset="0.35" stop-color="#F7C730"/>
<stop offset="0.64" stop-color="#F59C2E"/>
<stop offset="0.98" stop-color="#EB5E2C"/>
<stop offset="1" stop-color="#EB5C2C"/>
</linearGradient>
<linearGradient id="paint3_linear_9_715" x1="5.73044" y1="1.45248" x2="5.73044" y2="7.15383" gradientUnits="userSpaceOnUse">
<stop stop-color="#F6E93D"/>
<stop offset="0.13" stop-color="#F8E330"/>
<stop offset="0.35" stop-color="#F7C730"/>
<stop offset="0.64" stop-color="#F59C2E"/>
<stop offset="0.98" stop-color="#EB5E2C"/>
<stop offset="1" stop-color="#EB5C2C"/>
</linearGradient>
<linearGradient id="paint4_linear_9_715" x1="15.504" y1="3.38452" x2="15.504" y2="12.0467" gradientUnits="userSpaceOnUse">
<stop stop-color="#F6E93D"/>
<stop offset="0.13" stop-color="#F8E330"/>
<stop offset="0.35" stop-color="#F7C730"/>
<stop offset="0.64" stop-color="#F59C2E"/>
<stop offset="0.98" stop-color="#EB5E2C"/>
<stop offset="1" stop-color="#EB5C2C"/>
</linearGradient>
<linearGradient id="paint5_linear_9_715" x1="10.7406" y1="0" x2="10.7406" y2="8.91332" gradientUnits="userSpaceOnUse">
<stop stop-color="#F6E93D"/>
<stop offset="0.13" stop-color="#F8E330"/>
<stop offset="0.35" stop-color="#F7C730"/>
<stop offset="0.64" stop-color="#F59C2E"/>
<stop offset="0.98" stop-color="#EB5E2C"/>
<stop offset="1" stop-color="#EB5C2C"/>
</linearGradient>
<linearGradient id="paint6_linear_9_715" x1="12.4917" y1="6.83465" x2="12.4917" y2="8.91575" gradientUnits="userSpaceOnUse">
<stop stop-color="#F6E93D"/>
<stop offset="0.13" stop-color="#F8E330"/>
<stop offset="0.35" stop-color="#F7C730"/>
<stop offset="0.64" stop-color="#F59C2E"/>
<stop offset="0.98" stop-color="#EB5E2C"/>
<stop offset="1" stop-color="#EB5C2C"/>
</linearGradient>
<linearGradient id="paint7_linear_9_715" x1="6.72604" y1="8.39628" x2="7.38707" y2="6.58008" gradientUnits="userSpaceOnUse">
<stop stop-color="#F6E93D"/>
<stop offset="0.13" stop-color="#F8E330"/>
<stop offset="0.35" stop-color="#F7C730"/>
<stop offset="0.64" stop-color="#F59C2E"/>
<stop offset="0.98" stop-color="#EB5E2C"/>
<stop offset="1" stop-color="#EB5C2C"/>
</linearGradient>
</defs>
</svg>
