<svg width="19" height="18" viewBox="0 0 19 18" fill="none" xmlns="http://www.w3.org/2000/svg">
<g clip-path="url(#clip0_9_702)">
<path d="M9.33011 17.0259C13.7627 17.0259 17.356 13.4326 17.356 9C17.356 4.56741 13.7627 0.974091 9.33011 0.974091C4.89752 0.974091 1.3042 4.56741 1.3042 9C1.3042 13.4326 4.89752 17.0259 9.33011 17.0259Z" fill="white"/>
<path d="M9.33008 0C7.55005 0 5.80999 0.527841 4.32995 1.51677C2.84991 2.50571 1.69636 3.91131 1.01517 5.55585C0.333978 7.20038 0.155748 9.00998 0.503015 10.7558C0.850282 12.5016 1.70745 14.1053 2.96612 15.364C4.22479 16.6226 5.82844 17.4798 7.57427 17.8271C9.3201 18.1743 11.1297 17.9961 12.7742 17.3149C14.4188 16.6337 15.8244 15.4802 16.8133 14.0001C17.8022 12.5201 18.3301 10.78 18.3301 9C18.3335 7.82154 18.1048 6.65393 17.657 5.56386C17.2092 4.47379 16.5511 3.48259 15.7202 2.64686C14.8893 1.81113 13.902 1.14724 12.8145 0.693091C11.7271 0.238942 10.5608 0.00342908 9.38238 0H9.33008ZM9.48263 9.30508L8.54558 12.4649H13.5577C13.5909 12.4637 13.624 12.4691 13.6551 12.4808C13.6862 12.4924 13.7147 12.5101 13.739 12.5327C13.7633 12.5554 13.7829 12.5826 13.7966 12.6129C13.8104 12.6431 13.8181 12.6758 13.8192 12.709V12.7918L13.3834 14.2954C13.3641 14.3665 13.3213 14.429 13.2619 14.4725C13.2025 14.5161 13.1301 14.5382 13.0565 14.5351H5.38577L6.67149 10.155L5.23323 10.5908L5.56011 9.58838L6.99836 9.15254L8.80708 3.00726C8.82699 2.93656 8.86999 2.87454 8.92923 2.8311C8.98846 2.78766 9.06053 2.76529 9.13396 2.76755H11.0734C11.1066 2.76639 11.1397 2.77178 11.1708 2.78342C11.202 2.79506 11.2305 2.81272 11.2548 2.83538C11.2791 2.85805 11.2986 2.88528 11.3124 2.91552C11.3261 2.94576 11.3338 2.97842 11.3349 3.01162V3.09443L9.8095 8.28087L11.2478 7.84504L10.9427 8.89104L9.48263 9.30508Z" fill="#345D9D"/>
</g>
<defs>
<clipPath id="clip0_9_702">
<rect width="18" height="18" fill="white" transform="translate(0.330078)"/>
</clipPath>
</defs>
</svg>
