<svg width="19" height="18" viewBox="0 0 19 18" fill="none" xmlns="http://www.w3.org/2000/svg">
<path d="M13.9593 5.92167C13.6303 5.73368 13.2074 5.73368 12.8314 5.92167L10.1995 7.47259L8.41363 8.45953L5.82877 10.0104C5.49979 10.1984 5.07681 10.1984 4.70084 10.0104L2.67995 8.78851C2.35097 8.60052 2.11598 8.22454 2.11598 7.80157V5.4517C2.11598 5.07572 2.30397 4.69974 2.67995 4.46475L4.70084 3.28982C5.02982 3.10183 5.45279 3.10183 5.82877 3.28982L7.84966 4.51175C8.17864 4.69974 8.41363 5.07572 8.41363 5.49869V7.04961L10.1995 6.01567V4.41775C10.1995 4.04178 10.0115 3.6658 9.63556 3.43081L5.87577 1.22193C5.54679 1.03394 5.12381 1.03394 4.74783 1.22193L0.894047 3.47781C0.518068 3.6658 0.330078 4.04178 0.330078 4.41775V8.83551C0.330078 9.21149 0.518068 9.58747 0.894047 9.82245L4.70084 12.0313C5.02982 12.2193 5.45279 12.2193 5.82877 12.0313L8.41363 10.5274L10.1995 9.49347L12.7844 7.98956C13.1134 7.80157 13.5363 7.80157 13.9123 7.98956L15.9332 9.16449C16.2622 9.35248 16.4972 9.72846 16.4972 10.1514V12.5013C16.4972 12.8773 16.3092 13.2533 15.9332 13.4883L13.9593 14.6632C13.6303 14.8512 13.2074 14.8512 12.8314 14.6632L10.8105 13.4883C10.4815 13.3003 10.2465 12.9243 10.2465 12.5013V10.9974L8.46063 12.0313V13.5822C8.46063 13.9582 8.64862 14.3342 9.0246 14.5692L12.8314 16.7781C13.1604 16.9661 13.5833 16.9661 13.9593 16.7781L17.7661 14.5692C18.0951 14.3812 18.3301 14.0052 18.3301 13.5822V9.11749C18.3301 8.74151 18.1421 8.36554 17.7661 8.13055L13.9593 5.92167Z" fill="#8247E5"/>
</svg>
