<svg width="19" height="18" viewBox="0 0 19 18" fill="none" xmlns="http://www.w3.org/2000/svg">
<g clip-path="url(#clip0_9_701)">
<path d="M9.32987 8.15094C11.5807 8.15094 13.4053 6.32629 13.4053 4.07547C13.4053 1.82465 11.5807 0 9.32987 0C7.07905 0 5.25439 1.82465 5.25439 4.07547C5.25439 6.32629 7.07905 8.15094 9.32987 8.15094Z" fill="#88BDF3"/>
<path d="M9.32987 18C11.5807 18 13.4053 16.1753 13.4053 13.9245C13.4053 11.6737 11.5807 9.84906 9.32987 9.84906C7.07905 9.84906 5.25439 11.6737 5.25439 13.9245C5.25439 16.1753 7.07905 18 9.32987 18Z" fill="#3075EE"/>
<path d="M14.2547 13.0755C16.5055 13.0755 18.3301 11.2508 18.3301 9C18.3301 6.74918 16.5055 4.92453 14.2547 4.92453C12.0039 4.92453 10.1792 6.74918 10.1792 9C10.1792 11.2508 12.0039 13.0755 14.2547 13.0755Z" fill="#5795F1"/>
<path d="M4.40555 13.0755C6.65637 13.0755 8.48102 11.2508 8.48102 9C8.48102 6.74918 6.65637 4.92453 4.40555 4.92453C2.15473 4.92453 0.330078 6.74918 0.330078 9C0.330078 11.2508 2.15473 13.0755 4.40555 13.0755Z" fill="#205FEC"/>
<path d="M8.3707 8.04057C7.64429 7.86393 6.98045 7.4909 6.45183 6.96228C5.9232 6.43365 5.55017 5.76981 5.37354 5.0434C6.09867 5.22272 6.76107 5.59665 7.28926 6.12484C7.81746 6.65303 8.19139 7.31543 8.3707 8.04057Z" fill="#134BEF"/>
<path d="M5.36475 12.9651C5.54138 12.2387 5.91441 11.5748 6.44304 11.0462C6.97166 10.5176 7.6355 10.1446 8.36192 9.96793C8.1826 10.6931 7.80867 11.3555 7.28047 11.8837C6.75228 12.4118 6.08988 12.7858 5.36475 12.9651Z" fill="#0932E8"/>
<path d="M10.2896 9.95943C11.016 10.1361 11.6798 10.5091 12.2084 11.0377C12.7371 11.5663 13.1101 12.2302 13.2867 12.9566C12.5616 12.7773 11.8992 12.4034 11.371 11.8752C10.8428 11.347 10.4689 10.6846 10.2896 9.95943Z" fill="#164BEA"/>
<path d="M13.295 5.0349C13.1184 5.76132 12.7454 6.42516 12.2167 6.95378C11.6881 7.48241 11.0243 7.85544 10.2979 8.03207C10.4772 7.30694 10.8511 6.64454 11.3793 6.11635C11.9075 5.58815 12.5699 5.21422 13.295 5.0349Z" fill="#3170F1"/>
</g>
<defs>
<clipPath id="clip0_9_701">
<rect width="18" height="18" fill="white" transform="translate(0.330078)"/>
</clipPath>
</defs>
</svg>
