<svg width="19" height="19" viewBox="0 0 19 19" fill="none" xmlns="http://www.w3.org/2000/svg">
<g clip-path="url(#clip0_9_704)">
<path d="M13.4599 1.58471C12.9967 2.04788 12.5723 2.54988 12.1952 3.08517L12.0759 3.04634C11.3881 2.82169 10.6753 2.68301 9.95694 2.63586C9.74061 2.61922 8.93352 2.61922 8.67004 2.63586C7.87404 2.68856 7.26387 2.80782 6.5705 3.04911C6.54276 3.06021 6.5178 3.06853 6.49284 3.07685C6.10178 2.54434 5.66634 2.04511 5.18652 1.58748C7.48853 0.408744 10.1816 0.267295 12.5918 1.19642C12.8497 1.29349 13.1021 1.4072 13.3489 1.52924L13.4599 1.58471Z" fill="#F00500"/>
<path d="M17.7535 12.1046C17.404 13.1003 16.8798 14.0238 16.2003 14.8282C15.8314 15.2608 15.4237 15.6574 14.9855 16.018C13.9593 16.8445 12.7612 17.4352 11.4826 17.7459C10.0681 18.087 8.5926 18.087 7.17811 17.7459C5.89676 17.4352 4.70138 16.8445 3.67519 16.018C3.23697 15.6574 2.82927 15.2608 2.46039 14.8282C0.505078 12.5178 -0.088451 9.34495 0.907235 6.48548C1.09583 5.95574 1.33158 5.44541 1.61448 4.96005C1.74483 4.73817 1.9057 4.48856 1.98335 4.38594C2.24961 5.53139 2.57688 6.53817 2.69891 6.9015C2.69059 6.92091 2.6795 6.9431 2.66841 6.96252C2.02218 8.27161 1.67272 9.53355 1.58952 10.8759C1.58952 10.8926 1.58674 10.912 1.58674 10.9286C1.56455 11.3308 1.57565 11.5221 1.64221 11.7745C1.85022 12.565 2.4909 13.4359 3.49491 14.2901C5.13959 15.6879 7.36948 16.6975 9.05854 16.814C10.8197 16.9332 13.4185 15.9043 15.1491 14.401C15.4209 14.1597 15.6761 13.9046 15.9146 13.6328C16.0866 13.4331 16.3418 13.0892 16.3223 13.0892C16.3168 13.0892 16.3223 13.0836 16.3334 13.0781C16.3418 13.0725 16.3501 13.0642 16.3445 13.0587C16.3417 13.0559 16.3473 13.0476 16.3556 13.0448C16.3639 13.042 16.3695 13.0365 16.3667 13.0309C16.3639 13.0254 16.3667 13.0198 16.3778 13.0171C16.3861 13.0143 16.3889 13.006 16.3861 13.0004C16.3834 12.9949 16.3861 12.9893 16.3917 12.9893C16.3972 12.9893 16.4028 12.981 16.4028 12.9755C16.4028 12.9699 16.4083 12.9616 16.4139 12.9616C16.4194 12.9616 16.425 12.956 16.425 12.9505C16.4333 12.9283 16.4471 12.9061 16.461 12.8867C16.5026 12.8229 16.669 12.5262 16.6912 12.4762C16.8493 12.1184 16.9491 11.7995 16.9963 11.4805C17.0185 11.328 17.0323 11.0479 17.0213 10.9813C17.0185 10.9702 17.0185 10.9508 17.0157 10.9203C17.0102 10.8648 17.0074 10.7816 17.0018 10.6984C16.9963 10.5736 16.9852 10.3989 16.9769 10.3129C16.8576 9.05373 16.5359 8.02477 15.9257 6.93478C15.9008 6.89318 15.8786 6.85158 15.8647 6.8183C15.8592 6.80997 15.8564 6.80165 15.8536 6.79611C15.9396 6.53817 16.2918 5.45928 16.572 4.22507L16.5775 4.23062L16.6191 4.28609C16.6912 4.38316 16.8826 4.67161 16.9686 4.81028C17.3596 5.44819 17.6647 6.13324 17.881 6.8488C18.383 8.57115 18.3414 10.4072 17.7535 12.1046Z" fill="#F00500"/>
<path d="M14.1536 8.79025C14.1452 8.83463 14.0149 8.96776 13.8845 9.06483C13.5018 9.34495 12.8167 9.60566 12.1206 9.73047C11.724 9.80258 11.3274 9.81367 11.2081 9.75543C11.1304 9.7166 11.1194 9.68609 11.1471 9.58625C11.2053 9.37823 11.3939 9.15081 11.6879 8.93725C11.8377 8.82908 12.4451 8.46021 12.728 8.30489C13.1939 8.04973 13.5711 7.89719 13.8263 7.86113C13.9067 7.85004 14.0038 7.84726 14.0343 7.86113C14.0842 7.88055 14.1397 8.02754 14.1619 8.20504C14.173 8.29934 14.1674 8.71537 14.1536 8.79025Z" fill="black"/>
<path d="M7.61893 9.70828C7.60229 9.74156 7.51909 9.77762 7.42479 9.79149C7.33049 9.80535 7.04205 9.79703 6.87841 9.77762C6.29043 9.69996 5.66639 9.51968 5.21154 9.29781C4.95638 9.173 4.77332 9.04819 4.63742 8.91229L4.55977 8.83186L4.55144 8.72646C4.53758 8.54341 4.54035 8.25497 4.56254 8.15235C4.57641 8.06637 4.60691 7.98317 4.64852 7.90828C4.67071 7.88055 4.67071 7.88055 4.77055 7.88055C4.89259 7.88055 4.9952 7.89996 5.16161 7.95266C5.50275 8.05805 6.01031 8.31321 6.6288 8.68486C7.13912 8.98995 7.33049 9.13972 7.47748 9.34495C7.57733 9.47254 7.64389 9.65281 7.61893 9.70828Z" fill="black"/>
<path d="M11.5464 13.569C11.5464 13.5773 11.5131 13.7104 11.4715 13.8685C11.4299 14.0266 11.3966 14.1542 11.3966 14.1597C11.3661 14.1625 11.3384 14.1653 11.3079 14.1625H11.2191L11.0971 14.451C11.0305 14.6091 10.9695 14.756 10.9612 14.7782L10.9445 14.8171L10.8863 14.7228L10.828 14.6285V13.8602L10.8059 13.8658C10.7587 13.8768 10.4231 13.9212 10.2761 13.9351C9.66872 13.9961 9.05855 13.9822 8.45393 13.8963C8.35685 13.8824 8.27365 13.8713 8.27088 13.8741C8.2681 13.8768 8.27088 14.0544 8.27643 14.2735L8.28474 14.6673L8.2376 14.7394C8.21263 14.7782 8.18767 14.8115 8.18767 14.8143C8.17935 14.8226 8.15162 14.7782 8.08783 14.6507C8.01849 14.5175 7.96857 14.3761 7.93251 14.2291L7.91309 14.1487L7.82712 14.1542L7.74114 14.1625L7.71895 14.0599C7.70786 14.0044 7.69399 13.9185 7.68844 13.8713L7.68012 13.7826L7.60801 13.7188C7.56641 13.6827 7.52481 13.6466 7.51649 13.6411C7.50262 13.63 7.49707 13.6106 7.49707 13.594V13.5607L7.84376 13.5634L8.19044 13.5662L8.20154 13.6023L8.21263 13.6383L8.3319 13.6439C8.39846 13.6466 8.60924 13.6522 8.79784 13.6577L9.14453 13.6661L9.23328 13.5274L9.32481 13.3887H9.44129L9.43852 13.1003L9.43575 12.8118L9.2832 12.7453C8.79229 12.5289 8.50385 12.2821 8.39568 11.9825C8.3735 11.9215 8.3735 11.8993 8.36795 11.622C8.36518 11.3474 8.36518 11.3225 8.38459 11.2614C8.42342 11.1228 8.53159 11.0146 8.67026 10.9785C8.71741 10.9647 8.84222 10.9647 9.49676 10.9647L10.2678 10.9675L10.3538 11.0091C10.4564 11.059 10.5035 11.095 10.5618 11.1727C10.6283 11.2614 10.6478 11.3308 10.6478 11.5C10.6478 11.7413 10.6311 11.9493 10.6062 12.0325C10.5701 12.1462 10.5146 12.2544 10.4453 12.3514C10.3066 12.5289 10.0542 12.7064 9.82404 12.7869L9.75747 12.8118L9.76025 13.103L9.76302 13.3943L9.82404 13.3998L9.88505 13.4054L9.96826 13.5302L10.0487 13.655H10.4203C10.6256 13.655 10.8059 13.6577 10.8225 13.6605C10.8502 13.6661 10.8558 13.6633 10.8835 13.6161L10.9168 13.5662H11.2357C11.4743 13.5551 11.5464 13.5607 11.5464 13.569Z" fill="black"/>
<path d="M10.082 14.365C10.0293 14.3955 9.99325 14.4094 9.98493 14.4038C9.97661 14.401 9.93778 14.3678 9.89618 14.3372L9.82129 14.2762L9.74363 14.3594C9.57445 14.5425 9.5689 14.5508 9.51898 14.5536C9.44132 14.5619 9.42468 14.548 9.33038 14.4066C9.28046 14.3345 9.24163 14.2735 9.24163 14.2735C9.24163 14.2735 9.20558 14.2679 9.16397 14.2651L9.08632 14.2568L9.05026 14.3317L9.0142 14.4066L8.95041 14.3872C8.90049 14.3705 8.85057 14.3511 8.80342 14.3289L8.72021 14.2873V14.1292L9.45796 14.132L10.1957 14.1348L10.1985 14.2097C10.2013 14.2984 10.204 14.2956 10.082 14.365Z" fill="black"/>
<path d="M17.0155 10.9813C17.0128 10.9702 17.0128 10.9508 17.01 10.9203C16.3443 10.8482 14.4445 10.8038 12.6805 12.2599C12.6805 12.2599 12.112 9.65281 9.44942 9.65281C6.78686 9.65281 5.7995 12.2599 5.7995 12.2599C4.30736 10.654 2.31044 10.7705 1.58933 10.8759C1.58933 10.8926 1.58656 10.912 1.58656 10.9286C1.56437 11.3308 1.57546 11.5221 1.64203 11.7745C1.85004 12.565 2.49072 13.4359 3.49472 14.2901C5.13941 15.6879 7.3693 16.6975 9.05836 16.814C10.8195 16.9332 13.4183 15.9043 15.149 14.401C15.4208 14.1597 15.6759 13.9046 15.9144 13.6328C16.0864 13.4331 16.3416 13.0892 16.3222 13.0892C16.3166 13.0892 16.3222 13.0836 16.3332 13.0781C16.3416 13.0725 16.3499 13.0642 16.3443 13.0587C16.3416 13.0559 16.3471 13.0476 16.3554 13.0448C16.3638 13.042 16.3693 13.0365 16.3665 13.0309C16.3638 13.0254 16.3665 13.0198 16.3776 13.0171C16.3859 13.0143 16.3887 13.006 16.3859 13.0004C16.3832 12.9949 16.3859 12.9893 16.3915 12.9893C16.397 12.9893 16.4026 12.981 16.4026 12.9755C16.4026 12.9699 16.4081 12.9616 16.4137 12.9616C16.4192 12.9616 16.4248 12.956 16.4248 12.9505C16.4331 12.9283 16.447 12.9061 16.4608 12.8867C16.5024 12.8229 16.6688 12.5262 16.691 12.4762C16.8491 12.1184 16.949 11.7995 16.9961 11.4805C17.0128 11.328 17.0266 11.0479 17.0155 10.9813ZM10.0818 14.365C10.0291 14.3955 9.99303 14.4094 9.98471 14.4038C9.97639 14.401 9.93756 14.3678 9.89596 14.3372L9.82107 14.2762L9.74341 14.3594C9.57423 14.5425 9.56868 14.5508 9.51876 14.5536C9.4411 14.5619 9.42446 14.548 9.33016 14.4066C9.28024 14.3345 9.24141 14.2735 9.24141 14.2735C9.24141 14.2735 9.20536 14.2679 9.16375 14.2651L9.08609 14.2568L9.05004 14.3317L9.01398 14.4066L8.95019 14.3872C8.90027 14.3705 8.85035 14.3511 8.8032 14.3289L8.71999 14.2873V14.1292L9.45774 14.132L10.1955 14.1348L10.1983 14.2097C10.201 14.2984 10.2038 14.2956 10.0818 14.365ZM11.4685 13.8658C11.4269 14.0238 11.3936 14.1514 11.3936 14.157C11.3631 14.1597 11.3354 14.1625 11.3049 14.1597H11.2161L11.0969 14.451C11.0303 14.609 10.9693 14.756 10.961 14.7782L10.9443 14.8171L10.8861 14.7228L10.8279 14.6285V13.8602L10.8057 13.8658C10.7585 13.8768 10.4229 13.9212 10.2759 13.9351C9.66853 13.9961 9.05836 13.9822 8.45374 13.8963C8.35666 13.8824 8.27346 13.8713 8.27069 13.8741C8.26791 13.8768 8.27069 14.0543 8.27624 14.2735L8.28455 14.6673L8.23741 14.7394C8.21244 14.7782 8.18748 14.8115 8.18748 14.8143C8.17916 14.8226 8.15143 14.7782 8.08764 14.6507C8.0183 14.5175 7.96838 14.3761 7.93232 14.2291L7.9129 14.1486L7.82693 14.1542L7.74095 14.1625L7.71876 14.0599C7.70767 14.0044 7.6938 13.9184 7.68825 13.8713L7.67993 13.7825L7.60782 13.7188C7.56622 13.6827 7.52462 13.6466 7.5163 13.6411C7.50243 13.63 7.49688 13.6106 7.49688 13.5939V13.5607L7.84357 13.5634L8.19025 13.5662L8.20135 13.6023L8.21244 13.6383L8.33171 13.6439C8.39827 13.6466 8.60905 13.6522 8.79765 13.6577L9.14434 13.6661L9.23309 13.5274L9.32462 13.3887H9.4411L9.43833 13.1003L9.43555 12.8118L9.28301 12.7453C8.7921 12.5289 8.50366 12.2821 8.39549 11.9825C8.37331 11.9215 8.37331 11.8993 8.36776 11.622C8.36498 11.3474 8.36498 11.3225 8.3844 11.2614C8.42323 11.1228 8.5314 11.0146 8.67007 10.9785C8.71722 10.9647 8.84203 10.9647 9.49657 10.9647L10.2676 10.9674L10.3536 11.0091C10.4562 11.059 10.5034 11.095 10.5616 11.1727C10.6282 11.2614 10.6476 11.3308 10.6476 11.5C10.6476 11.7413 10.6309 11.9493 10.606 12.0325C10.5699 12.1462 10.5144 12.2543 10.4451 12.3514C10.3064 12.5289 10.054 12.7064 9.82384 12.7869L9.75728 12.8118L9.76006 13.103L9.76283 13.3943L9.82384 13.3998L9.88486 13.4054L9.96807 13.5302L10.0485 13.655H10.4201C10.6254 13.655 10.8057 13.6577 10.8223 13.6605C10.85 13.6661 10.8556 13.6633 10.8833 13.6161L10.9166 13.5662H11.2356C11.4824 13.5662 11.5545 13.569 11.5545 13.5773C11.5462 13.5745 11.5101 13.7104 11.4685 13.8658Z" fill="white"/>
<path d="M16.9935 10.6984C16.988 10.5736 16.9769 10.3989 16.9686 10.3129C16.8493 9.05373 16.5276 8.02477 15.9174 6.93478C15.8925 6.89318 15.8703 6.85158 15.8564 6.8183C15.8509 6.80997 15.8481 6.80165 15.8453 6.79611C15.9313 6.53817 16.2835 5.45928 16.5636 4.22507C16.9436 2.54988 17.1849 0.591793 16.4472 0.00381146C16.4472 0.00381146 15.1713 -0.0904875 13.4629 1.58471C12.9997 2.04788 12.5754 2.54988 12.1982 3.08517L12.0789 3.04634C11.3911 2.82168 10.6783 2.68301 9.95995 2.63586C9.74361 2.61922 8.93653 2.61922 8.67304 2.63586C7.87705 2.68856 7.26688 2.80782 6.57351 3.04911C6.54577 3.06021 6.52081 3.06853 6.49585 3.07685C6.10478 2.54433 5.66935 2.04511 5.18953 1.58748C3.41172 -0.0960343 2.08876 0.00103779 2.08876 0.00103779C1.30663 0.608434 1.57289 2.65528 1.97782 4.38594C2.24408 5.53139 2.57135 6.53817 2.69338 6.9015C2.68506 6.92091 2.67397 6.9431 2.66288 6.96252C2.01665 8.27161 1.66719 9.53355 1.58398 10.8759C2.30787 10.7705 4.30201 10.6513 5.79693 12.2599C5.79693 12.2599 6.78429 9.65281 9.44685 9.65281C12.1094 9.65281 12.678 12.2599 12.678 12.2599C14.4419 10.8038 16.3418 10.851 17.0074 10.9203C17.0046 10.8648 16.9991 10.7816 16.9935 10.6984ZM3.21758 5.85589C3.21758 5.85589 2.18029 3.26267 2.44654 1.78162C2.49092 1.53201 2.57412 1.3129 2.70448 1.14649C2.70448 1.14649 3.88044 1.26298 5.77751 3.37084C5.77751 3.37084 5.41696 3.54557 4.93437 3.91722C4.93437 3.91722 4.9316 3.91999 4.92882 3.91999C4.40463 4.32215 3.73345 4.96005 3.21758 5.85589ZM7.61911 9.70828C7.60247 9.74156 7.51927 9.77762 7.42497 9.79148C7.33067 9.80535 7.04223 9.79703 6.87859 9.77762C6.29061 9.69996 5.66657 9.51968 5.21172 9.2978C4.95656 9.173 4.77351 9.04819 4.6376 8.91229L4.55995 8.83186L4.55163 8.72646C4.53776 8.54341 4.54053 8.25497 4.56272 8.15235C4.57659 8.06637 4.6071 7.98316 4.6487 7.90828C4.67089 7.88054 4.67089 7.88054 4.77073 7.88054C4.89277 7.88054 4.99539 7.89996 5.1618 7.95266C5.50294 8.05805 6.01049 8.31321 6.62898 8.68486C7.1393 8.98994 7.33067 9.13971 7.47767 9.34495C7.57751 9.47253 7.64408 9.65281 7.61911 9.70828ZM14.1535 8.79025C14.1452 8.83463 14.0148 8.96776 13.8844 9.06483C13.5017 9.34495 12.8166 9.60566 12.1205 9.73047C11.7239 9.80258 11.3273 9.81367 11.208 9.75543C11.1304 9.7166 11.1193 9.68609 11.147 9.58625C11.2052 9.37823 11.3938 9.15081 11.6878 8.93725C11.8376 8.82908 12.445 8.46021 12.7279 8.30489C13.1938 8.04973 13.571 7.89719 13.8262 7.86113C13.9066 7.85004 14.0037 7.84726 14.0342 7.86113C14.0841 7.88055 14.1396 8.02754 14.1618 8.20504C14.1729 8.29934 14.1673 8.71537 14.1535 8.79025ZM13.6931 3.91722L13.6875 3.91444C13.2216 3.54279 12.8721 3.36806 12.8721 3.36806C14.7054 1.26021 15.8398 1.14372 15.8398 1.14372C15.9646 1.3129 16.045 1.52924 16.0894 1.77885C16.3473 3.2599 15.3461 5.85589 15.3461 5.85589C14.9273 5.10982 14.3643 4.44973 13.6931 3.91722Z" fill="#FFA409"/>
<path d="M16.0921 1.77885C15.8758 1.75111 14.8523 1.74557 13.693 3.91722L13.6875 3.91444C13.2215 3.54279 12.8721 3.36806 12.8721 3.36806C14.7054 1.26021 15.8397 1.14372 15.8397 1.14372C15.9673 1.3129 16.0477 1.52923 16.0921 1.77885Z" fill="#FF9300"/>
<path d="M15.3487 5.85589C14.9271 5.10704 14.3668 4.44973 13.6929 3.91721C14.8522 1.74557 15.8728 1.75111 16.0919 1.77885C16.3499 3.26267 15.3487 5.85589 15.3487 5.85589Z" fill="#FF8300"/>
<path d="M16.1339 1.78717C16.12 1.7844 16.1062 1.78162 16.0923 1.77885L16.1339 1.78717Z" fill="#FF8300"/>
<path d="M5.77759 3.36806C5.77759 3.36806 5.41704 3.54279 4.93445 3.91444C4.93445 3.91444 4.93167 3.91722 4.9289 3.91722C3.72798 1.74279 2.67127 1.75111 2.44385 1.77885C2.48822 1.52923 2.57143 1.31013 2.70178 1.14372C2.70456 1.14372 3.88052 1.26021 5.77759 3.36806Z" fill="#FF9300"/>
<path d="M4.93159 3.91721C4.40463 4.32215 3.73344 4.95728 3.21757 5.85589C3.21757 5.85589 2.18028 3.26267 2.44654 1.77885C2.67119 1.75111 3.73067 1.74557 4.93159 3.91721Z" fill="#FF8300"/>
<path d="M2.44672 1.77885C2.43285 1.78162 2.41621 1.7844 2.40234 1.78717L2.44672 1.77885Z" fill="#FF8300"/>
<path d="M12.542 7.29534C12.542 7.29534 11.6545 7.35081 11.7655 6.65743C11.8764 5.96406 12.5698 5.88085 12.7639 5.90859C12.9581 5.93632 13.7346 6.21367 13.596 6.79611C13.4573 7.37854 13.2631 7.2676 13.1522 7.29534C13.0413 7.32307 12.542 7.29534 12.542 7.29534Z" fill="white"/>
<path d="M5.99663 7.29534C5.99663 7.29534 5.10911 7.35081 5.22005 6.65743C5.33099 5.96406 6.02436 5.88085 6.21851 5.90859C6.41265 5.93632 7.18923 6.21367 7.05055 6.79611C6.91188 7.37854 6.71773 7.2676 6.60679 7.29534C6.49585 7.32307 5.99663 7.29534 5.99663 7.29534Z" fill="white"/>
</g>
<defs>
<clipPath id="clip0_9_704">
<rect width="18" height="18.0017" fill="white" transform="translate(0.330078)"/>
</clipPath>
</defs>
</svg>
