<svg width="19" height="18" viewBox="0 0 19 18" fill="none" xmlns="http://www.w3.org/2000/svg">
<g clip-path="url(#clip0_9_707)">
<path d="M17.4487 5.42274C16.605 4.64368 15.4378 3.45399 14.4872 2.61024L14.4309 2.57086C14.3373 2.49571 14.2318 2.43677 14.1187 2.39649C11.8265 1.96899 1.15873 -0.0250736 0.950606 0.000238856C0.892288 0.00840637 0.836545 0.0295503 0.78748 0.0621138L0.734043 0.104301C0.668243 0.171127 0.618267 0.251857 0.587793 0.340551L0.57373 0.377114V0.576801V0.607739C1.77467 3.9518 6.51654 14.9065 7.45029 17.4771C7.50654 17.6515 7.61342 17.9834 7.81311 18.0002H7.85811C7.96498 18.0002 8.42061 17.3984 8.42061 17.3984C8.42061 17.3984 16.5656 7.52086 17.3897 6.46899C17.4963 6.33942 17.5905 6.20005 17.6709 6.05274C17.6914 5.93748 17.6818 5.81887 17.6428 5.70847C17.6039 5.59806 17.537 5.49962 17.4487 5.42274ZM10.5103 6.57305L13.9865 3.69024L16.0256 5.56899L10.5103 6.57305ZM9.16029 6.38461L3.17529 1.47961L12.8587 3.26555L9.16029 6.38461ZM9.70029 7.66993L15.8259 6.68274L8.82279 15.1202L9.70029 7.66993ZM2.36248 1.96899L8.65967 7.31274L7.74842 15.1259L2.36248 1.96899Z" fill="#FF060A"/>
</g>
<defs>
<clipPath id="clip0_9_707">
<rect width="18" height="18.0002" fill="white" transform="translate(0.127441)"/>
</clipPath>
</defs>
</svg>
