<svg width="18" height="18" viewBox="0 0 18 18" fill="none" xmlns="http://www.w3.org/2000/svg">
<g clip-path="url(#clip0_9_716)">
<path d="M7.3121 4.09133C7.11706 4.06347 7.10777 4.05418 7.20065 4.04489C7.37712 4.01703 7.78579 4.05418 8.07371 4.1192C8.74244 4.27709 9.34616 4.68576 9.98703 5.40093L10.1542 5.59598L10.3957 5.55882C11.4267 5.39164 12.4855 5.52167 13.3678 5.93034C13.6093 6.0418 13.9901 6.26471 14.0366 6.32043C14.0551 6.33901 14.083 6.45975 14.1016 6.5805C14.1666 7.01703 14.1387 7.34211 13.9994 7.59288C13.9251 7.7322 13.9251 7.76935 13.9715 7.89009C14.0087 7.98297 14.1202 8.04799 14.2223 8.04799C14.4452 8.04799 14.6774 7.69505 14.7889 7.20279L14.8353 7.00774L14.9189 7.10062C15.3926 7.63003 15.7641 8.36378 15.8198 8.8839L15.8384 9.02322L15.7548 8.90248C15.6155 8.68886 15.4855 8.54954 15.309 8.42879C14.9932 8.21517 14.6589 8.15016 13.7765 8.10372C12.9777 8.05728 12.5226 7.99226 12.0768 7.84365C11.3152 7.59288 10.9251 7.2678 10.0242 6.06966C9.6248 5.54025 9.37402 5.25232 9.12325 5.01084C8.57526 4.48142 8.02727 4.20279 7.3121 4.09133Z" fill="#FF007A"/>
<path d="M14.2315 5.2709C14.25 4.91796 14.2965 4.68576 14.3986 4.47214C14.4358 4.38855 14.4729 4.31424 14.4822 4.31424C14.4915 4.31424 14.4729 4.37926 14.4451 4.45356C14.3708 4.6579 14.3615 4.94582 14.4079 5.2709C14.4729 5.68885 14.5008 5.74458 14.9466 6.19969C15.151 6.41331 15.3925 6.68266 15.4853 6.79412L15.6432 6.99845L15.4853 6.84985C15.2903 6.66409 14.8445 6.31115 14.7423 6.26471C14.6773 6.22755 14.668 6.22755 14.6216 6.27399C14.5844 6.31115 14.5751 6.36687 14.5751 6.63622C14.5658 7.05418 14.5101 7.31424 14.3708 7.58359C14.2965 7.72291 14.2872 7.69505 14.3522 7.53715C14.3986 7.41641 14.4079 7.36068 14.4079 6.9613C14.4079 6.15325 14.3151 5.9582 13.7485 5.63313C13.6092 5.54954 13.3677 5.42879 13.2284 5.36378C13.0798 5.29876 12.9683 5.24303 12.9776 5.24303C12.9962 5.22446 13.5442 5.38235 13.7578 5.47523C14.0829 5.60526 14.1386 5.61455 14.1757 5.60526C14.2036 5.5774 14.2222 5.5031 14.2315 5.2709Z" fill="#FF007A"/>
<path d="M7.69297 6.6548C7.30287 6.1161 7.0521 5.28019 7.10783 4.6579L7.1264 4.46285L7.21928 4.48142C7.38647 4.50929 7.67439 4.62074 7.81371 4.70433C8.18523 4.92725 8.35241 5.23375 8.5103 5.99536C8.55674 6.21827 8.62176 6.47833 8.64962 6.56192C8.69606 6.70124 8.87253 7.02632 9.02114 7.23065C9.12331 7.37926 9.05829 7.45356 8.82609 7.43498C8.47315 7.39783 7.99947 7.07276 7.69297 6.6548Z" fill="#FF007A"/>
<path d="M13.7582 10.695C11.9192 9.95201 11.269 9.31115 11.269 8.22446C11.269 8.06656 11.2783 7.93653 11.2783 7.93653C11.2876 7.93653 11.3526 7.99226 11.4362 8.05728C11.8077 8.35449 12.2257 8.48452 13.3867 8.6517C14.0647 8.75387 14.4548 8.82817 14.8077 8.94892C15.9316 9.32043 16.6282 10.082 16.7954 11.113C16.8418 11.4102 16.8139 11.9768 16.7396 12.274C16.6746 12.5062 16.4889 12.9334 16.4424 12.9427C16.4331 12.9427 16.4146 12.8963 16.4146 12.822C16.396 12.4319 16.2009 12.0604 15.8759 11.7724C15.4858 11.4381 14.9842 11.1873 13.7582 10.695Z" fill="#FF007A"/>
<path d="M12.4575 11.0015C12.4389 10.8622 12.3925 10.6858 12.3646 10.6115L12.3182 10.4721L12.4018 10.5743C12.5225 10.7136 12.6154 10.8808 12.699 11.113C12.764 11.2895 12.764 11.3452 12.764 11.6331C12.764 11.9118 12.7547 11.9768 12.699 12.1347C12.6061 12.3854 12.4947 12.5619 12.3089 12.757C11.9745 13.1006 11.538 13.2864 10.9157 13.37C10.8043 13.3793 10.4885 13.4071 10.2098 13.4257C9.51323 13.4628 9.04883 13.5372 8.63087 13.6858C8.57515 13.7043 8.51942 13.7229 8.51013 13.7136C8.49156 13.695 8.77948 13.5279 9.01168 13.4164C9.33676 13.2585 9.67112 13.1749 10.4049 13.0449C10.7671 12.9892 11.1386 12.9149 11.2315 12.8777C12.151 12.5898 12.6061 11.8746 12.4575 11.0015Z" fill="#FF007A"/>
<path d="M13.3028 12.4969C13.0613 11.9675 13.0056 11.4659 13.1356 10.9923C13.1542 10.9458 13.1728 10.8994 13.1914 10.8994C13.21 10.8994 13.2657 10.9272 13.3214 10.9644C13.4329 11.0387 13.6651 11.1687 14.2595 11.4938C15.0118 11.9025 15.4391 12.2183 15.7363 12.5805C15.9963 12.8963 16.1542 13.2585 16.2285 13.7043C16.275 13.9551 16.2471 14.5588 16.1821 14.8096C15.9778 15.5991 15.5134 16.2307 14.8353 16.5929C14.7332 16.6486 14.6496 16.6858 14.6403 16.6858C14.631 16.6858 14.6682 16.5929 14.7239 16.4814C14.9468 16.0077 14.9747 15.5526 14.8075 15.0418C14.7053 14.726 14.4917 14.3452 14.0644 13.7043C13.5536 12.9613 13.4329 12.7663 13.3028 12.4969Z" fill="#FF007A"/>
<path d="M6.38352 15.339C7.07083 14.7632 7.91603 14.3545 8.69622 14.2245C9.03058 14.1687 9.58786 14.1873 9.89436 14.2709C10.3866 14.4009 10.8324 14.6796 11.0646 15.0232C11.2875 15.3576 11.3897 15.6455 11.4919 16.2864C11.529 16.5372 11.5755 16.7972 11.5848 16.8529C11.6591 17.1873 11.8077 17.4474 11.9934 17.5867C12.2814 17.8003 12.7829 17.8096 13.2752 17.6238C13.3588 17.596 13.4331 17.5681 13.4331 17.5774C13.4516 17.596 13.2009 17.7632 13.0337 17.8467C12.8015 17.9675 12.6157 18.0046 12.3649 18.0046C11.9191 18.0046 11.5383 17.7724 11.2318 17.308C11.1668 17.2152 11.0368 16.9458 10.9253 16.695C10.6002 15.9427 10.4331 15.7198 10.0523 15.469C9.71789 15.2554 9.29064 15.209 8.96557 15.3669C8.53832 15.5712 8.42687 16.1192 8.72408 16.4536C8.84482 16.5929 9.06773 16.7043 9.25349 16.7322C9.59715 16.7786 9.89436 16.5093 9.89436 16.1656C9.89436 15.9427 9.81077 15.8127 9.58786 15.7105C9.29064 15.5805 8.96557 15.7291 8.97485 16.017C8.97485 16.1378 9.03058 16.2121 9.15132 16.2678C9.22563 16.305 9.22563 16.305 9.1699 16.2957C8.90055 16.2399 8.83554 15.9056 9.04916 15.692C9.30922 15.4319 9.85721 15.5433 10.043 15.9056C10.1173 16.0542 10.1266 16.3514 10.0615 16.5372C9.90365 16.9458 9.45783 17.1594 9.00272 17.0387C8.69622 16.9551 8.56619 16.8715 8.19467 16.4907C7.54451 15.822 7.29374 15.692 6.36495 15.5526L6.18848 15.5248L6.38352 15.339Z" fill="#FF007A"/>
<path fill-rule="evenodd" clip-rule="evenodd" d="M1.49784 0.394737C3.66193 3.02322 6.9963 7.10991 7.16348 7.33282C7.3028 7.51858 7.24707 7.69505 7.01487 7.82508C6.88484 7.89938 6.61549 7.97368 6.48546 7.97368C6.33685 7.97368 6.16038 7.89938 6.03964 7.77864C5.95605 7.69505 5.59382 7.16564 4.77648 5.89319C4.15419 4.91796 3.62478 4.10991 3.61549 4.10062C3.57834 4.08204 3.57834 4.08204 4.71147 6.10681C5.42664 7.37926 5.65883 7.83437 5.65883 7.89009C5.65883 8.01084 5.62168 8.07585 5.47308 8.24304C5.2223 8.52167 5.11085 8.83746 5.02726 9.49691C4.93438 10.2307 4.6836 10.7508 3.96843 11.6331C3.55047 12.1533 3.48546 12.2461 3.38329 12.4598C3.25326 12.7198 3.21611 12.8684 3.19753 13.2028C3.17896 13.5557 3.21611 13.7786 3.31828 14.113C3.41116 14.4102 3.51332 14.6053 3.7641 14.9861C3.97772 15.3204 4.10775 15.5712 4.10775 15.6641C4.10775 15.7384 4.12633 15.7384 4.46069 15.6641C5.25945 15.4783 5.9189 15.1625 6.28113 14.7724C6.50404 14.531 6.55976 14.4009 6.55976 14.0666C6.55976 13.8529 6.55048 13.8065 6.49475 13.6765C6.40187 13.4721 6.2254 13.305 5.84459 13.0449C5.34304 12.7012 5.12942 12.4226 5.07369 12.0511C5.02726 11.7353 5.08298 11.5217 5.36162 10.9365C5.64955 10.3328 5.72385 10.082 5.77029 9.46904C5.79815 9.07895 5.84459 8.92105 5.95605 8.80031C6.07679 8.67028 6.17896 8.62384 6.46688 8.58669C6.94057 8.52167 7.24707 8.40093 7.48856 8.16873C7.70218 7.97368 7.79506 7.77864 7.80435 7.49071L7.81363 7.27709L7.69289 7.14706C7.25636 6.64551 1.20992 -0.00464344 1.18205 -0.00464344C1.17277 -0.00464344 1.32137 0.171827 1.49784 0.394737ZM4.34924 13.6022C4.4514 13.4257 4.39568 13.2028 4.22849 13.0913C4.0706 12.9892 3.82911 13.0356 3.82911 13.1749C3.82911 13.2121 3.84769 13.2492 3.90342 13.2678C3.98701 13.3142 3.9963 13.3607 3.93128 13.4628C3.86626 13.565 3.86626 13.6579 3.94986 13.7229C4.07989 13.8251 4.25636 13.7694 4.34924 13.6022Z" fill="#FF007A"/>
<path fill-rule="evenodd" clip-rule="evenodd" d="M8.11082 8.71672C7.8879 8.78173 7.67428 9.02322 7.60927 9.26471C7.57212 9.41331 7.59069 9.68266 7.65571 9.76625C7.75787 9.89629 7.85075 9.93344 8.11082 9.93344C8.62165 9.93344 9.05818 9.71053 9.10462 9.44118C9.15106 9.21827 8.95602 8.91177 8.68667 8.77245C8.54735 8.69814 8.25942 8.67028 8.11082 8.71672ZM8.70524 9.18112C8.77955 9.06966 8.75168 8.94892 8.61236 8.86533C8.36159 8.70743 7.98078 8.83746 7.98078 9.07895C7.98078 9.19969 8.17583 9.32972 8.36159 9.32972C8.48233 9.32972 8.64952 9.25542 8.70524 9.18112Z" fill="#FF007A"/>
</g>
<defs>
<clipPath id="clip0_9_716">
<rect width="18" height="18" fill="white"/>
</clipPath>
</defs>
</svg>
