<svg width="19" height="18" viewBox="0 0 19 18" fill="none" xmlns="http://www.w3.org/2000/svg">
<g clip-path="url(#clip0_9_714)">
<path d="M9.66309 18C14.6506 18 18.6631 13.9875 18.6631 9C18.6631 4.01247 14.6506 0 9.66309 0C4.67556 0 0.663086 4.01247 0.663086 9C0.663086 13.9875 4.67556 18 9.66309 18Z" fill="#2775CA"/>
<path d="M12.1383 10.425C12.1383 9.1125 11.3508 8.6625 9.77575 8.47503C8.65075 8.325 8.42575 8.02503 8.42575 7.49997C8.42575 6.97491 8.80078 6.6375 9.55075 6.6375C10.2258 6.6375 10.6008 6.8625 10.7883 7.425C10.8258 7.5375 10.9383 7.61247 11.0508 7.61247H11.6507C11.8008 7.61247 11.9133 7.49997 11.9133 7.35003V7.3125C11.7632 6.48747 11.0882 5.85 10.2258 5.77503V4.87503C10.2258 4.725 10.1133 4.6125 9.92578 4.57497H9.36328C9.21325 4.57497 9.10075 4.68747 9.06322 4.87503V5.7375C7.93822 5.88753 7.22578 6.6375 7.22578 7.57503C7.22578 8.81253 7.97575 9.29997 9.55075 9.48753C10.6008 9.675 10.9383 9.9 10.9383 10.5C10.9383 11.1001 10.4132 11.5125 9.70078 11.5125C8.72572 11.5125 8.38822 11.1 8.27572 10.5375C8.23828 10.3875 8.12578 10.3125 8.01328 10.3125H7.37572C7.22578 10.3125 7.11328 10.425 7.11328 10.575V10.6125C7.26322 11.55 7.86325 12.225 9.10075 12.4125V13.3125C9.10075 13.4625 9.21325 13.575 9.40072 13.6125H9.96322C10.1133 13.6125 10.2258 13.5 10.2633 13.3125V12.4125C11.3883 12.225 12.1383 11.4375 12.1383 10.425Z" fill="white"/>
<path d="M7.75083 14.3625C4.82583 13.3125 3.3258 10.05 4.41336 7.16247C4.97586 5.58747 6.21336 4.3875 7.75083 3.825C7.90086 3.75003 7.97583 3.63753 7.97583 3.44997V2.925C7.97583 2.77497 7.90086 2.66247 7.75083 2.62503C7.7133 2.62503 7.63833 2.62503 7.6008 2.66247C4.03833 3.78747 2.0883 7.57503 3.2133 11.1375C3.8883 13.2375 5.50083 14.85 7.6008 15.525C7.75083 15.6 7.90086 15.525 7.9383 15.375C7.97583 15.3375 7.97583 15.3 7.97583 15.225V14.7C7.97583 14.5875 7.86333 14.4375 7.75083 14.3625ZM11.7259 2.66247C11.5758 2.5875 11.4258 2.66247 11.3884 2.8125C11.3508 2.85003 11.3508 2.88747 11.3508 2.96253V3.4875C11.3508 3.63753 11.4633 3.78747 11.5758 3.86253C14.5008 4.91247 16.0009 8.17497 14.9133 11.0625C14.3508 12.6375 13.1133 13.8375 11.5758 14.4C11.4258 14.475 11.3508 14.5875 11.3508 14.775V15.3C11.3508 15.45 11.4258 15.5625 11.5758 15.6C11.6134 15.6 11.6883 15.6 11.7259 15.5625C15.2883 14.4375 17.2384 10.65 16.1134 7.0875C15.4384 4.95 13.7883 3.33747 11.7259 2.66247Z" fill="white"/>
</g>
<defs>
<clipPath id="clip0_9_714">
<rect width="18" height="18" fill="white" transform="translate(0.663086)"/>
</clipPath>
</defs>
</svg>
