<svg width="19" height="18" viewBox="0 0 19 18" fill="none" xmlns="http://www.w3.org/2000/svg">
<g clip-path="url(#clip0_9_706)">
<path fill-rule="evenodd" clip-rule="evenodd" d="M3.42297 1.24781L0.140935 8.14173C0.128445 8.16737 0.124488 8.19633 0.12964 8.22438C0.134793 8.25244 0.148785 8.2781 0.169571 8.29763L9.03355 16.7915C9.05873 16.8156 9.09226 16.8291 9.12715 16.8291C9.16203 16.8291 9.19557 16.8156 9.22075 16.7915L18.0847 8.29816C18.1055 8.27863 18.1195 8.25297 18.1247 8.22491C18.1298 8.19686 18.1259 8.1679 18.1134 8.14226L14.8313 1.24834C14.8207 1.22519 14.8037 1.20558 14.7823 1.19185C14.7608 1.17812 14.7359 1.17085 14.7104 1.17092H3.54494C3.51935 1.1706 3.49423 1.17769 3.47258 1.19134C3.45094 1.20498 3.43371 1.22459 3.42297 1.24781Z" fill="#50AF95"/>
<path fill-rule="evenodd" clip-rule="evenodd" d="M10.2659 8.84968C10.2023 8.85445 9.8735 8.87407 9.14009 8.87407C8.55676 8.87407 8.14259 8.85657 7.99729 8.84968C5.74298 8.75051 4.06034 8.35809 4.06034 7.88825C4.06034 7.4184 5.74298 7.02651 7.99729 6.92575V8.45885C8.14472 8.46945 8.56683 8.49438 9.15017 8.49438C9.85016 8.49438 10.2007 8.46521 10.2638 8.45938V6.92681C12.5133 7.02704 14.1923 7.41946 14.1923 7.88825C14.1923 8.35703 12.5139 8.74945 10.2638 8.84915L10.2659 8.84968ZM10.2659 6.76825V5.39636H13.4053V3.30433H4.85791V5.39636H7.99676V6.76772C5.44548 6.88492 3.52686 7.39029 3.52686 7.9959C3.52686 8.6015 5.44548 9.10635 7.99676 9.22407V13.6203H10.2654V9.22248C12.8108 9.10529 14.7263 8.60044 14.7263 7.99537C14.7263 7.39029 12.8124 6.88545 10.2654 6.76772L10.2659 6.76825Z" fill="white"/>
</g>
<defs>
<clipPath id="clip0_9_706">
<rect width="17.9994" height="18" fill="white" transform="translate(0.127441)"/>
</clipPath>
</defs>
</svg>
