<svg width="19" height="18" viewBox="0 0 19 18" fill="none" xmlns="http://www.w3.org/2000/svg">
<g clip-path="url(#clip0_9_713)">
<path d="M15.3404 3.77759L14.8462 4.27183C16.0255 5.5615 16.6795 7.24582 16.6795 8.99341C16.6795 10.741 16.0255 12.4253 14.8462 13.715L15.3404 14.2092C16.652 12.7866 17.3801 10.9226 17.3801 8.98764C17.3801 7.05273 16.652 5.18866 15.3404 3.76606V3.77759Z" fill="#5A5564"/>
<path d="M4.94668 3.82043C6.23636 2.64111 7.92068 1.98711 9.66827 1.98711C11.4159 1.98711 13.1002 2.64111 14.3898 3.82043L14.8841 3.32619C13.4615 2.01466 11.5974 1.28651 9.6625 1.28651C7.72758 1.28651 5.86352 2.01466 4.44092 3.32619L4.94668 3.82043Z" fill="#5A5564"/>
<path d="M4.48362 13.7199C3.3057 12.4305 2.65256 10.7473 2.65256 9.00082C2.65256 7.25439 3.3057 5.5711 4.48362 4.28171L3.98939 3.78748C2.67786 5.21008 1.94971 7.07414 1.94971 9.00906C1.94971 10.944 2.67786 12.808 3.98939 14.2306L4.48362 13.7199Z" fill="#5A5564"/>
<path d="M14.3832 14.1763C13.0935 15.3556 11.4092 16.0096 9.66162 16.0096C7.91403 16.0096 6.22971 15.3556 4.94003 14.1763L4.4458 14.6705C5.8684 15.982 7.73246 16.7102 9.66738 16.7102C11.6023 16.7102 13.4664 15.982 14.889 14.6705L14.3832 14.1763Z" fill="#5A5564"/>
<path d="M12.7835 7.35091C12.6846 6.3196 11.795 5.97364 10.6698 5.8682V4.44811H9.79995V5.84184C9.57096 5.84184 9.33702 5.84184 9.10473 5.84184V4.44811H8.24147V5.87809H6.47705V6.8089C6.47705 6.8089 7.11955 6.79736 7.10967 6.8089C7.22552 6.79615 7.34179 6.82888 7.43399 6.90017C7.52618 6.97147 7.5871 7.07577 7.6039 7.1911V11.1054C7.60143 11.1461 7.59082 11.1859 7.57271 11.2224C7.5546 11.2589 7.52936 11.2914 7.49847 11.318C7.46816 11.345 7.43269 11.3657 7.39418 11.3787C7.35568 11.3918 7.31494 11.3969 7.27441 11.3937C7.28595 11.4036 6.6418 11.3937 6.6418 11.3937L6.47705 12.4333H8.22499V13.8863H9.09484V12.4547H9.79007V13.8797H10.6616V12.4432C12.1311 12.3542 13.1558 11.9918 13.2843 10.6161C13.3881 9.50906 12.8675 9.01483 12.0355 8.81549C12.5413 8.56672 12.8543 8.10544 12.7835 7.35091ZM11.5644 10.4448C11.5644 11.5255 9.71264 11.402 9.12285 11.402V9.48435C9.71264 9.486 11.5644 9.31631 11.5644 10.4448ZM11.1607 7.743C11.1607 8.73147 9.61544 8.6112 9.1245 8.6112V6.8682C9.61544 6.8682 11.1607 6.71334 11.1607 7.743Z" fill="#F09242"/>
<path d="M9.66144 18C7.88155 17.9997 6.14172 17.4716 4.66193 16.4825C3.18214 15.4935 2.02884 14.0879 1.34786 12.4434C0.666874 10.7989 0.488783 8.98946 0.836103 7.24379C1.18342 5.49811 2.04056 3.89462 3.29913 2.63604C4.5577 1.37747 6.1612 0.520336 7.90687 0.173017C9.65255 -0.174303 11.462 0.00378854 13.1065 0.684773C14.7509 1.36576 16.1566 2.51905 17.1456 3.99884C18.1347 5.47863 18.6628 7.21846 18.6631 8.99836C18.6633 10.1805 18.4306 11.3512 17.9783 12.4434C17.526 13.5356 16.863 14.528 16.0271 15.364C15.1911 16.1999 14.1987 16.8629 13.1065 17.3152C12.0143 17.7675 10.8436 18.0002 9.66144 18ZM9.66144 0.701816C8.02161 0.703119 6.41898 1.19053 5.0561 2.10245C3.69322 3.01437 2.63128 4.30986 2.0045 5.82518C1.37772 7.34049 1.21423 9.00761 1.5347 10.6158C1.85518 12.224 2.64522 13.7011 3.80499 14.8604C4.96475 16.0197 6.44217 16.8092 8.0505 17.129C9.65884 17.4489 11.3259 17.2847 12.841 16.6573C14.356 16.03 15.6511 14.9675 16.5625 13.6043C17.4738 12.241 17.9606 10.6382 17.9613 8.99836C17.9617 7.90844 17.7473 6.82913 17.3303 5.82213C16.9133 4.81514 16.3019 3.90022 15.5311 3.12968C14.7602 2.35915 13.8451 1.74812 12.8379 1.33152C11.8308 0.914931 10.7514 0.70095 9.66144 0.701816Z" fill="#282138"/>
</g>
<defs>
<clipPath id="clip0_9_713">
<rect width="18" height="18" fill="white" transform="translate(0.663086)"/>
</clipPath>
</defs>
</svg>
