<svg width="19" height="19" viewBox="0 0 19 19" fill="none" xmlns="http://www.w3.org/2000/svg">
<g clip-path="url(#clip0_9_697)">
<path d="M18.4044 9.00007C18.4044 13.9705 14.3753 18.0001 9.40457 18.0001C4.43379 18.0001 0.404785 13.9705 0.404785 9.00007C0.404785 4.02963 4.43389 0 9.40457 0C14.3752 0 18.4044 4.02925 18.4044 9.00007Z" fill="white"/>
<path d="M9.4046 0C4.43559 0 0.399443 4.03533 0.405769 8.99978C0.407015 9.99302 0.565398 10.9484 0.862659 11.8421H3.55531V4.27106L9.4046 10.1203L15.2536 4.27106V11.8423H17.9468C18.2445 10.9486 18.4021 9.99321 18.4039 8.99993C18.4123 4.0303 14.3741 0.00119805 9.4046 0.00119805V0Z" fill="#F26822"/>
<path d="M8.05928 11.465L5.50661 8.91218V13.6763H3.55498L1.71338 13.6767C3.29304 16.2683 6.14786 18.0019 9.40446 18.0019C12.6611 18.0019 15.516 16.2679 17.096 13.6763H13.3017V8.91218L10.7489 11.465L9.40417 12.8097L8.05938 11.465H8.05928Z" fill="#4D4D4D"/>
</g>
<defs>
<clipPath id="clip0_9_697">
<rect width="17.9996" height="18.0019" fill="white" transform="translate(0.404785)"/>
</clipPath>
</defs>
</svg>
