<svg width="19" height="18" viewBox="0 0 19 18" fill="none" xmlns="http://www.w3.org/2000/svg">
<g clip-path="url(#clip0_9_712)">
<path d="M16.0265 1.54688H18.6281L13.214 6.9075C11.2534 8.84777 8.07453 8.84777 6.11246 6.9075L0.696289 1.54688H3.29996L7.41324 5.61902C8.01254 6.20969 8.8202 6.5408 9.66166 6.5408C10.5031 6.5408 11.3108 6.20969 11.9101 5.61902L16.0265 1.54688Z" fill="#23292F"/>
<path d="M3.26641 16.4531H0.663086L6.1123 11.0595C8.07297 9.11918 11.2518 9.11918 13.2139 11.0595L18.6631 16.4531H16.0615L11.9131 12.3479C11.3138 11.7573 10.5061 11.4262 9.66467 11.4262C8.82321 11.4262 8.01555 11.7573 7.41625 12.3479L3.26641 16.4531Z" fill="#23292F"/>
</g>
<defs>
<clipPath id="clip0_9_712">
<rect width="18" height="18" fill="white" transform="translate(0.663086)"/>
</clipPath>
</defs>
</svg>
